<?xml version="1.0" encoding="UTF-8" standalone="no"?>
<svg
   xmlns:dc="http://purl.org/dc/elements/1.1/"
   xmlns:cc="http://creativecommons.org/ns#"
   xmlns:rdf="http://www.w3.org/1999/02/22-rdf-syntax-ns#"
   xmlns:svg="http://www.w3.org/2000/svg"
   xmlns="http://www.w3.org/2000/svg"
   xmlns:sodipodi="http://sodipodi.sourceforge.net/DTD/sodipodi-0.dtd"
   xmlns:inkscape="http://www.inkscape.org/namespaces/inkscape"
   sodipodi:docname="amsterdam.svg"
   inkscape:version="1.0rc1 (09960d6, 2020-04-09)"
   id="svg8"
   version="1.1"
   viewBox="0 0 536.35413 86.42939"
   height="86.42939mm"
   width="536.35413mm">
  <defs
     id="defs2">
    <clipPath
       id="clipPath294"
       clipPathUnits="userSpaceOnUse">
      <rect
         transform="scale(1,-1)"
         y="-4596.2144"
         x="121.79208"
         height="2276.3447"
         width="4695.1182"
         id="rect296"
         style="fill:#ececec;stroke-width:2.75027" />
    </clipPath>
    <clipPath
       id="clipPath326"
       clipPathUnits="userSpaceOnUse">
      <rect
         transform="scale(1,-1)"
         y="-3401.8743"
         x="183.08594"
         height="1082.0043"
         width="4629.876"
         id="rect328"
         style="fill:#ececec;stroke-width:2.75027" />
    </clipPath>
    <clipPath
       clipPathUnits="userSpaceOnUse"
       id="clipPath75">
      <rect
         style="fill:#ececec;stroke-width:0.264586"
         id="rect77"
         width="536.35413"
         height="86.431023"
         x="-149.88812"
         y="82.55304"
         transform="matrix(1,0,0.00614894,0.9999811,0,0)" />
    </clipPath>
  </defs>
  <sodipodi:namedview
     inkscape:window-maximized="0"
     inkscape:window-y="23"
     inkscape:window-x="21"
     inkscape:window-height="755"
     inkscape:window-width="1252"
     inkscape:snap-global="true"
     showgrid="false"
     inkscape:document-rotation="0"
     inkscape:current-layer="layer1"
     inkscape:document-units="mm"
     inkscape:cy="368.30759"
     inkscape:cx="921.7306"
     inkscape:zoom="0.35"
     inkscape:pageshadow="2"
     inkscape:pageopacity="0.0"
     borderopacity="1.0"
     bordercolor="#666666"
     pagecolor="none"
     id="base"
     showguides="false" />
  <metadata
     id="metadata5">
    <rdf:RDF>
      <cc:Work
         rdf:about="">
        <dc:format>image/svg+xml</dc:format>
        <dc:type
           rdf:resource="http://purl.org/dc/dcmitype/StillImage" />
        <dc:title />
      </cc:Work>
    </rdf:RDF>
  </metadata>
  <g
     transform="translate(160.71979,-65.011898)"
     id="layer1"
     inkscape:groupmode="layer"
     inkscape:label="Layer 1">
    <g
       transform="matrix(1,0,-0.00614906,1,-9.319766,-16.027678)"
       id="g273"
       clip-path="url(#clipPath75)">
      <g
         id="g38"
         transform="matrix(0.11586231,0,0,-0.07987897,-170.59326,354.28969)">
        <path
           clip-path="url(#clipPath326)"
           d="M 0,5000 H 5000 V 0 H 0 v 5000"
           style="fill:none;fill-opacity:0;fill-rule:evenodd;stroke:none"
           id="path40"
           inkscape:connector-curvature="0" />
        <path
           d="m 1325.3,3052.21 v -11.81 h 8.27 v 11.81 z m -224.43,-336.64 h 81.51 v 30.71 h -4.73 v 4.72 h 4.73 v 13 h 16.53 v -13 h 4.73 v -4.72 h -4.73 v -30.71 h 57.88 8.27 v 165.37 h 7.09 v 90.95 h -4.73 v 15.35 h 10.63 v 20.08 c 0,8.27 7.09,15.36 15.36,15.36 v 0 2.36 c 0,8.27 7.09,15.36 15.35,15.36 h 10.64 v 11.81 h -4.73 v 10.63 c 0,3.54 3.54,5.91 5.91,5.91 h 4.72 v 30.71 h -4.72 v 3.54 h 4.72 v 8.27 h 7.09 V 3103 h 5.9 v -3.54 h -5.9 v -30.71 h 4.72 c 3.55,0 5.91,-2.37 5.91,-5.91 v -10.63 h -3.54 v -11.81 h 9.45 c 8.26,0 15.35,-7.09 15.35,-15.36 v -2.36 h 1.18 c 8.27,0 15.36,-7.09 15.36,-15.36 v -20.08 h 9.45 v -15.35 h -4.73 v -90.95 h 8.27 v -165.37 h 4.73 61.42 v 30.71 h -4.73 v 4.72 h 4.73 v 13 h 16.53 v -13 h 4.73 v -4.72 h -4.73 v -30.71 h 15.36 v -158.28 h -390.98 v 158.28"
           style="fill:#b3b3b3;fill-opacity:1;fill-rule:evenodd;stroke:none"
           id="path42"
           inkscape:connector-curvature="0" />
        <path
           d="m 1783.6,3186.87 v -13 h 8.27 v 13 z m -224.42,-336.65 h 81.5 v 29.53 h -4.72 v 5.91 h 4.72 v 12.99 h 16.54 v -12.99 h 4.72 v -5.91 h -4.72 v -29.53 h 57.88 8.26 v 165.37 h 7.09 v 90.95 h -4.72 v 15.36 h 10.63 v 20.08 c 0,8.27 7.08,15.36 15.35,15.36 v 0 1.18 c 0,9.45 7.09,15.35 15.36,15.35 h 10.63 v 13 h -4.73 v 10.63 c 0,3.54 3.55,5.9 7.09,5.9 h 4.73 v 30.71 h -5.91 v 3.55 h 5.91 v 8.26 h 5.9 v -8.26 h 5.91 v -3.55 h -5.91 v -30.71 h 4.73 c 3.54,0 5.9,-2.36 5.9,-5.9 v -10.63 h -3.54 v -13 h 9.45 c 9.45,0 15.35,-5.9 15.35,-15.35 v -1.18 h 1.19 c 8.26,0 15.35,-7.09 15.35,-15.36 v -20.08 h 9.45 v -15.36 h -4.72 v -90.95 h 8.26 v -165.37 h 4.73 61.42 v 29.53 h -4.72 v 5.91 h 4.72 v 12.99 h 16.54 v -12.99 h 4.72 v -5.91 h -4.72 v -29.53 h 15.35 v -158.28 h -390.97 v 158.28"
           style="fill:#b3b3b3;fill-opacity:1;fill-rule:evenodd;stroke:none"
           id="path44"
           inkscape:connector-curvature="0" />
        <path
           d="m 3729.03,3120.72 v -14.18 h 9.45 v 14.18 z M 3455,2709.66 h 99.22 v 36.62 h -5.91 v 5.91 h 5.91 v 16.53 h 20.08 v -16.53 h 5.9 v -5.91 h -5.9 v -36.62 h 70.87 9.45 v 201.99 h 9.45 v 112.21 h -5.91 v 17.72 h 12.99 v 24.8 c 0,10.63 8.27,18.9 18.9,18.9 v 0 2.36 c 0,10.64 9.45,18.9 18.9,18.9 h 13 v 14.18 h -5.91 v 14.17 c 0,3.55 3.54,7.09 8.27,7.09 h 5.9 v 36.62 h -7.08 v 4.72 h 7.08 v 10.63 h 8.27 v -10.63 h 7.09 v -4.72 h -7.09 v -36.62 h 4.73 c 4.72,0 8.27,-3.54 8.27,-7.09 v -14.17 h -5.91 v -14.18 h 12.99 c 10.63,0 18.9,-8.26 18.9,-18.9 v -2.36 0 c 10.63,0 18.9,-8.27 18.9,-18.9 v -24.8 h 12.99 v -17.72 h -5.9 v -112.21 h 9.45 v -201.99 h 4.72 76.78 v 36.62 h -5.91 v 5.91 h 5.91 v 16.53 h 20.08 v -16.53 h 4.73 v -5.91 h -4.73 v -36.62 h 18.9 V 2515.95 H 3455 v 193.71"
           style="fill:#b3b3b3;fill-opacity:1;fill-rule:evenodd;stroke:none"
           id="path46"
           inkscape:connector-curvature="0" />
        <path
           d="m 3567.21,3040.4 v -11.82 h 8.27 v 11.82 z m -218.52,-328.38 h 79.14 v 29.53 h -4.73 v 5.91 h 4.73 v 11.81 h 15.35 v -11.81 h 4.73 v -5.91 h -4.73 v -29.53 h 57.88 7.09 v 161.83 h 7.09 v 88.59 h -4.73 v 14.17 h 10.63 v 20.08 c 0,8.27 7.09,15.36 15.36,15.36 v 0 1.18 c 0,8.27 7.09,15.35 15.35,15.35 h 9.45 v 11.82 h -3.54 v 10.63 c 0,3.54 2.36,5.9 5.91,5.9 h 3.54 v 29.53 h -4.72 v 3.55 h 4.72 v 8.27 h 7.09 v -8.27 h 5.9 v -3.55 h -5.9 v -29.53 h 4.72 c 3.55,0 5.91,-2.36 5.91,-5.9 v -10.63 h -4.73 v -11.82 h 10.63 c 8.27,0 14.18,-7.08 14.18,-15.35 v -1.18 h 1.18 c 8.27,0 14.17,-7.09 14.17,-15.36 v -20.08 h 10.63 v -14.17 h -4.72 v -88.59 h 8.27 v -161.83 h 3.54 60.24 v 29.53 h -4.72 v 5.91 h 4.72 v 11.81 h 16.54 v -11.81 h 4.72 v -5.91 h -4.72 v -29.53 h 15.35 v -153.55 h -381.52 v 153.55"
           style="fill:#b3b3b3;fill-opacity:1;fill-rule:evenodd;stroke:none"
           id="path48"
           inkscape:connector-curvature="0" />
        <path
           d="m 3959.37,2957.71 v -11.81 h 8.27 v 11.81 z m -218.52,-328.37 h 79.14 v 29.53 h -4.73 v 4.73 h 4.73 v 12.99 h 16.53 v -12.99 h 3.55 v -4.73 h -3.55 v -29.53 h 56.7 7.09 v 161.82 h 7.08 v 88.59 h -3.54 v 14.18 h 9.45 v 20.08 c 0,8.27 7.09,14.17 15.36,14.17 v 0 2.37 c 0,8.26 7.08,15.35 15.35,15.35 h 9.45 v 11.81 h -3.54 v 10.63 c 0,3.55 2.36,5.91 5.9,5.91 h 3.55 v 29.53 h -4.73 v 3.54 h 4.73 v 8.27 h 7.08 v -8.27 h 5.91 v -3.54 h -5.91 v -29.53 h 4.73 c 3.54,0 5.9,-2.36 5.9,-5.91 v -10.63 h -4.72 v -11.81 h 10.63 c 8.27,0 14.17,-7.09 14.17,-15.35 v -2.37 h 1.19 c 8.26,0 14.17,-5.9 14.17,-14.17 v -20.08 h 10.63 v -14.18 h -4.72 v -88.59 h 8.26 v -161.82 h 3.55 60.24 v 29.53 h -3.54 v 4.73 h 3.54 v 12.99 h 16.54 v -12.99 h 4.72 v -4.73 h -4.72 v -29.53 h 15.35 v -153.55 h -381.52 v 153.55"
           style="fill:#b3b3b3;fill-opacity:1;fill-rule:evenodd;stroke:none"
           id="path50"
           inkscape:connector-curvature="0" />
        <path
           d="m 2937.63,2884.48 -66.14,28.35 v 48.43 h -23.63 v -48.43 l -64.96,-28.35 v -244.51 h 76.77 77.96 v 244.51"
           style="fill:#b3b3b3;fill-opacity:1;fill-rule:evenodd;stroke:none"
           id="path52"
           inkscape:connector-curvature="0" />
        <path
           d="m 3092.37,2884.48 -66.15,28.35 v 48.43 h -23.62 v -48.43 l -64.97,-28.35 v -244.51 h 76.78 77.96 v 244.51"
           style="fill:#b3b3b3;fill-opacity:1;fill-rule:evenodd;stroke:none"
           id="path54"
           inkscape:connector-curvature="0" />
        <path
           d="m 3247.11,2884.48 -66.15,28.35 v 48.43 h -23.62 v -48.43 l -64.97,-28.35 v -244.51 h 76.78 77.96 v 244.51"
           style="fill:#b3b3b3;fill-opacity:1;fill-rule:evenodd;stroke:none"
           id="path56"
           inkscape:connector-curvature="0" />
        <path
           d="m 2469.88,2884.48 -66.15,28.35 v 48.43 h -23.62 v -48.43 l -64.97,-28.35 v -244.51 h 76.78 77.96 v 244.51"
           style="fill:#b3b3b3;fill-opacity:1;fill-rule:evenodd;stroke:none"
           id="path58"
           inkscape:connector-curvature="0" />
        <path
           d="m 4816.91,2781.72 -46.06,20.08 v 33.07 h -16.54 v -33.07 l -44.88,-20.08 v -171.28 h 53.15 54.33 v 171.28"
           style="fill:#b3b3b3;fill-opacity:1;fill-rule:evenodd;stroke:none"
           id="path60"
           inkscape:connector-curvature="0" />
        <path
           d="m 1046.54,3058.11 h 176 v -347.27 h -176 z m -476.024,90.96 h 63.785 v -9.45 h 48.429 v -546.9 H 500.828 v 113.4 H 326.012 v 206.71 h 174.816 v 226.79 h 62.602 v 24.8 h 7.086 z m 265.769,133.47 h 15.356 v -314.2 h 34.254 v 264.59 H 1024.1 V 2741.55 H 885.895 v 85.05 H 851.641 V 2717.93 H 747.695 v 502.01 21.26 41.34 10.63 41.34 h 50.793 v -41.34 h 37.797 v -10.63"
           style="fill:#b3b3b3;fill-opacity:1;fill-rule:evenodd;stroke:none"
           id="path62"
           inkscape:connector-curvature="0" />
        <path
           d="m 991.023,1900.54 v 0 c 2.364,0 3.543,1.18 3.543,2.37 v 15.35 c 0,1.18 -1.179,2.36 -3.543,2.36 v 0 c -1.179,0 -2.363,-1.18 -2.363,-2.36 v -15.35 c 0,-1.19 1.184,-2.37 2.363,-2.37 z m -22.445,0 v 0 c 1.184,0 2.363,1.18 2.363,2.37 v 15.35 c 0,1.18 -1.179,2.36 -2.363,2.36 v 0 c -2.359,0 -3.543,-1.18 -3.543,-2.36 v -15.35 c 0,-1.19 1.184,-2.37 3.543,-2.37 z m 10.633,-1.18 v 0 c 3.543,0 5.906,1.18 5.906,3.55 v 17.71 h -10.633 v -17.71 c 0,-2.37 2.364,-3.55 4.727,-3.55 z m 507.909,56.7 h 18.9 v -37.8 c 0,-3.54 -4.72,-7.09 -9.45,-7.09 v 0 c -4.72,0 -9.45,3.55 -9.45,7.09 z m -25.98,0 h 17.72 v -37.8 c 0,-3.54 -4.73,-7.09 -9.45,-7.09 v 0 c -4.73,0 -8.27,3.55 -8.27,7.09 z m -27.17,0 h 17.72 v -37.8 c 0,-3.54 -3.54,-7.09 -9.45,-7.09 v 0 c -4.73,0 -8.27,3.55 -8.27,7.09 z m 31.89,-98.04 v 7.09 h 7.09 v -7.09 z m -790.215,352 h 30.71 v -49.61 c -12.992,10.63 -31.89,28.35 -40.16,36.61 h 9.45 z M 2374.2,2182.85 h -5.9 v 3.54 h 5.9 z m 11.81,0 h -8.26 v 3.54 h 8.26 z m 10.64,0 h -7.09 v 3.54 h 7.09 z m 10.63,0 h -7.09 v 3.54 h 7.09 z m 11.81,0 H 2412 v 3.54 h 7.09 z m 10.63,0 h -7.09 v 3.54 h 7.09 z m 10.63,0 h -7.09 v 3.54 h 7.09 z m 11.81,0 h -7.09 v 3.54 h 7.09 z m 10.63,0 h -7.08 v 3.54 h 7.08 z m 10.63,0 h -7.08 v 3.54 h 7.08 z m 11.81,0 h -7.08 v 3.54 h 7.08 z m 11.82,0 h -8.27 v 3.54 h 8.27 z m -8.27,-2.36 h 8.27 v -31.9 h -8.27 z m -10.63,0 h 7.08 v -31.9 h -7.08 z m -11.81,0 h 7.08 v -31.9 h -7.08 z m -10.63,0 h 7.08 v -31.9 h -7.08 z m -10.64,0 h 7.09 v -31.9 h -7.09 z m -11.81,0 h 7.09 v -31.9 h -7.09 z m -10.63,0 h 7.09 v -31.9 h -7.09 z m -10.63,0 h 7.09 v -31.9 H 2412 Z m -11.81,0 h 7.09 v -31.9 h -7.09 z m -10.63,0 h 7.09 v -31.9 h -7.09 z m -11.81,0 h 8.26 v -31.9 h -8.26 z m -9.45,0 h 5.9 v -31.9 h -5.9 z m 240.96,2.36 h -5.91 v 3.54 h 5.91 z m 11.81,0 h -7.09 v 3.54 h 7.09 z m 10.63,0 h -7.08 v 3.54 h 7.08 z m 10.63,0 h -7.08 v 3.54 h 7.08 z m 11.82,0 h -7.09 v 3.54 h 7.09 z m 10.63,0 h -7.09 v 3.54 h 7.09 z m 11.81,0 h -7.09 v 3.54 h 7.09 z m 10.63,0 h -7.09 v 3.54 h 7.09 z m 10.63,0 h -7.09 v 3.54 h 7.09 z m 11.81,0 h -7.09 v 3.54 h 7.09 z m -7.09,-2.36 h 7.09 v -31.9 h -7.09 z m -11.81,0 h 7.09 v -31.9 h -7.09 z m -10.63,0 h 7.09 v -31.9 h -7.09 z m -10.63,0 h 7.09 v -31.9 h -7.09 z m -11.81,0 h 7.09 v -31.9 h -7.09 z m -10.63,0 h 7.09 v -31.9 h -7.09 z m -11.81,0 h 7.08 v -31.9 h -7.08 z m -10.63,0 h 7.08 v -31.9 h -7.08 z m -10.64,0 h 7.09 v -31.9 h -7.09 z m -10.63,0 h 5.91 v -31.9 h -5.91 z m 1403.26,5.9 v 23.63 h 115.76 v -25.99 h 8.27 c -16.54,-8.27 -37.8,-12.99 -60.24,-12.99 -24.81,0 -47.25,5.9 -63.79,15.35 z m 341.37,-2.36 h 8.27 v 25.99 h 111.03 v -25.99 h 2.36 c -16.53,-8.27 -37.8,-12.99 -60.24,-12.99 -23.62,0 -44.88,4.72 -61.42,12.99 z m 159.46,-70.87 3.54,4.72 v -9.45 z m -23.62,22.44 21.26,-12.99 -3.54,-4.73 z m -11.81,-51.97 -220.89,-48.43 -2.36,5.91 220.88,49.61 z m -467.76,0 222.07,-48.43 2.36,5.91 -222.07,49.61 z m 115.76,62.6 v 11.81 h 21.26 v -11.81 z m -27.17,0 v 11.81 h 23.63 v -11.81 z m -27.17,0 v 11.81 h 23.63 v -11.81 z m -27.16,0 v 11.81 h 23.62 v -11.81 z m -27.17,0 v 11.81 h 23.62 v -11.81 z m -18.9,0 v 11.81 h 15.36 v -11.81 z m 479.57,0 h 17.71 l 5.91,5.91 v 5.9 h -9.45 -16.54 v -9.45 z m -29.53,0 h 1.18 l 5.9,4.73 9.45,7.08 7.09,-5.9 v 5.9 h -23.62 z m 44.88,-3.54 h -11.81 l 5.9,-5.91 z m -72.05,3.54 v 11.81 h 23.62 v -11.81 z m -27.17,0 v 11.81 h 23.62 v -11.81 z m -27.17,0 v 11.81 h 23.63 v -11.81 z m -24.8,0 v 11.81 h 21.26 v -11.81 z M 1684.38,1733.99 v 0 c 3.55,0 5.91,2.37 5.91,4.73 v 31.89 h -11.81 v -31.89 c 0,-2.36 2.36,-4.73 5.9,-4.73 z m -14.17,0 v 0 c 3.54,0 5.91,2.37 5.91,4.73 v 31.89 h -11.82 v -31.89 c 0,-2.36 2.37,-4.73 5.91,-4.73 z m 17.72,74.42 v 0 c 4.72,0 8.27,3.54 8.27,7.09 v 29.53 h -16.54 v -29.53 c 0,-3.55 3.54,-7.09 8.27,-7.09 z m -21.26,0 v 0 c 4.72,0 8.26,3.54 8.26,7.09 v 29.53 h -16.53 v -29.53 c 0,-3.55 3.54,-7.09 8.27,-7.09 z M 183.086,2210.02 h 46.066 v -13 h 43.703 c -27.167,-34.25 -75.593,-103.94 -75.593,-103.94 -3.547,-36.62 426.41,41.34 509.093,55.51 v -43.7 h 15.356 v -66.15 0 -38.98 h 5.906 v 29.53 h 4.723 v -12.99 c 0,-1.18 1.183,-3.54 4.726,-4.72 v -3.55 h -5.906 v -4.72 h 4.727 v -3.55 h 1.179 v -14.17 c 0,-8.27 4.727,-15.36 11.813,-17.72 h -1.184 v -7.09 h -3.543 v -3.54 h 3.543 v -4.72 h 7.09 v -36.62 h 5.906 v 36.62 h 7.086 v 4.72 h 3.543 v 3.54 h -3.543 v 7.09 h -1.179 c 7.086,2.36 11.808,9.45 11.808,17.72 v 14.17 h 2.364 v 3.55 h 3.543 v 4.72 h -5.907 v 3.55 c 3.543,1.18 5.907,3.54 5.907,4.72 v 12.99 h 4.726 v -29.53 h 4.723 v 38.98 0 31.9 l 24.804,-23.63 h 3.547 v -24.8 h 4.723 v 24.8 h 10.633 v -16.54 h -5.906 v -3.54 h 3.542 v -3.54 h 2.364 v -15.36 c 0,-7.08 4.722,-14.17 11.808,-17.72 h -1.179 v -5.9 h -3.543 v -4.73 h 3.543 v -4.72 h 7.086 v -35.44 h 4.726 v 35.44 h 8.27 v 4.72 h 3.543 v 4.73 h -3.543 v 5.9 h -1.184 c 7.09,3.55 11.813,10.64 11.813,17.72 v 15.36 h 1.179 v 3.54 h 4.727 v 3.54 h -5.906 v 16.54 h 9.449 v -24.8 h 5.906 v 24.8 h 8.27 v -9.45 h 4.722 v -15.35 h 5.907 v 15.35 h 5.906 v 9.45 h 5.906 v -57.88 h -9.449 v -5.9 h 10.633 v -9.45 h -4.727 v -5.91 h 4.727 v -4.72 c 0,-15.36 10.629,-28.35 27.168,-36.62 v -7.09 h 5.906 v -18.9 c 0,-8.27 7.086,-15.35 17.715,-16.53 v -15.36 h -5.907 v -4.72 h 5.907 v -3.55 h 5.906 v 3.55 h 5.906 v 4.72 h -5.906 v 15.36 c 10.633,1.18 17.716,8.26 17.716,16.53 v 18.9 h 5.91 v 7.09 c 16.54,8.27 27.17,21.26 27.17,36.62 v 4.72 h 4.72 v 5.91 h -4.72 v 9.45 h 10.63 v 5.9 h -9.45 v 57.88 h 15.35 l 44.89,57.88 v 28.35 h 29.53 v -101.58 h -11.81 v -8.27 h 17.71 l 28.35,-30.71 v 0 l 1.18,-11.82 h 11.82 v -17.71 h -5.91 v -3.55 h 5.91 v -8.27 h 8.26 v 8.27 h 5.91 v 3.55 h -5.91 v 17.71 h 13 v 11.82 h 17.72 v -18.9 h -5.91 v -3.55 h 5.91 v -7.08 h 8.26 v 7.08 h 5.91 v 3.55 h -5.91 v 18.9 h 134.66 v -18.9 h -3.54 v -3.55 h 3.54 v -7.08 h 12.99 v 7.08 h 3.55 v 3.55 h -3.55 v 18.9 h 46.07 5.91 v -29.53 h 5.9 v -56.7 h -3.54 V 1897 h 8.27 v -11.81 c 0,-4.73 5.9,-9.45 11.81,-9.45 h 1.18 v -1.18 c 0,-5.91 4.72,-9.45 11.81,-9.45 h 8.27 v -7.09 h -3.54 v -7.09 c 0,-2.36 2.36,-3.54 4.72,-3.54 h 3.54 v -18.9 h -4.72 v -2.36 h 4.72 v -4.73 h 4.73 v 4.73 h 4.72 v 2.36 h -4.72 v 18.9 h 4.72 c 2.37,0 4.73,1.18 4.73,3.54 v 7.09 h -3.54 v 7.09 h 8.26 c 5.91,0 11.82,3.54 11.82,9.45 v 1.18 0 c 7.08,0 11.81,4.72 11.81,9.45 V 1897 h 8.27 v 9.45 h -3.55 v 56.7 h 5.91 v 29.53 h 3.54 48.43 v -18.9 h -3.54 v -3.55 h 3.54 v -7.08 h 12.99 v 7.08 h 3.55 v 3.55 h -3.55 v 18.9 h 33.08 v -89.77 c 0,-4.73 4.72,-8.27 11.81,-8.27 h 4.72 v -36.62 -1.18 h -9.45 v -5.91 h 11.82 v -15.35 h 3.54 v 15.35 h 3.54 v -5.9 h 2.37 v 5.9 h 3.54 v -47.24 h -7.09 v -4.73 h 7.09 v -3.54 c 0,-7.09 4.72,-13 10.63,-16.54 v -46.07 c 0,-7.08 5.91,-11.81 14.17,-12.99 v -7.09 h -2.36 c -5.9,0 -10.63,-3.54 -11.81,-7.08 h -5.91 v -3.55 h 5.91 c 1.18,-3.54 5.91,-7.08 11.81,-7.08 h 2.36 v -13 h -4.72 v -2.36 h 4.72 v -11.81 h -4.72 v -2.36 h 4.72 v -16.54 h -4.72 v -3.54 h 4.72 4.73 4.72 v 3.54 h -4.72 v 16.54 h 4.72 v 2.36 h -4.72 v 11.81 h 4.72 v 2.36 h -4.72 v 13 h 2.36 c 5.91,0 10.63,3.54 11.81,7.08 h 5.91 v 3.55 h -5.91 c -1.18,3.54 -5.9,7.08 -11.81,7.08 h -2.36 v 7.09 c 8.27,1.18 14.17,5.91 14.17,12.99 v 46.07 c 5.91,3.54 10.63,9.45 10.63,16.54 v 3.54 h 7.09 v 4.73 h -7.09 v 47.24 h 3.55 v -5.9 h 2.36 v 5.9 h 3.54 v -15.35 h 3.55 v 15.35 h 11.81 v 5.91 h -9.45 v 1.18 36.62 h 4.73 c 7.08,0 11.81,3.54 11.81,8.27 v 89.77 h 7.08 l 1.19,-11.82 h 11.81 v -17.71 h -5.91 v -3.55 h 5.91 v -8.27 h 8.27 v 8.27 h 5.9 v 3.55 h -5.9 v 17.71 h 12.99 v 11.82 0 l 28.35,30.71 h 17.72 v 8.27 h -11.82 v 101.58 h 35.44 v -86.23 h -15.36 v -4.72 h 15.36 v -22.45 h 9.45 v -9.45 h 7.09 v -14.17 -18.9 h 4.72 v 18.9 h 21.26 v -18.9 h 4.73 v 18.9 14.17 h 7.08 v 9.45 h 9.45 v 22.45 h 36.62 v -21.26 h -10.63 v -3.55 h 16.54 c 0,0 99.22,-36.62 131.11,-47.25 v -10.63 h -8.27 v -4.72 h 4.73 c -1.19,0 -1.19,-1.18 -1.19,-2.36 v 0 c 0,-1.19 0,-2.37 1.19,-3.55 h -4.73 v -3.54 h 12.99 v -5.91 h 4.73 v 5.91 h 12.99 v 3.54 h -4.72 c 1.18,1.18 1.18,2.36 1.18,3.55 v 0 c 0,1.18 0,2.36 -1.18,2.36 h 4.72 v 4.72 h -8.27 v 10.63 c 30.72,10.63 129.94,47.25 129.94,47.25 h 17.71 v 3.55 H 2236 v 21.26 h 35.44 v -22.45 h 10.63 v -9.45 h 7.09 v -14.17 -18.9 h 4.72 v 18.9 h 20.08 v -18.9 h 5.91 v 18.9 14.17 h 5.9 v 9.45 h 10.63 v 22.45 h 14.18 v 4.72 h -14.18 v 86.23 h 31.9 v 12.99 h 5.9 v -5.9 h 3.55 v 5.9 h 8.26 v -5.9 h 3.55 v 5.9 h 7.09 v -5.9 h 3.54 v 5.9 h 7.09 v -5.9 h 4.72 v 5.9 h 7.09 v -5.9 h 3.54 v 5.9 h 7.09 v -5.9 h 3.54 v 5.9 h 7.09 v -5.9 h 4.72 v 5.9 h 7.09 v -5.9 h 3.55 v 5.9 h 7.08 v -5.9 h 3.55 v 5.9 h 7.08 v -5.9 h 4.73 v 5.9 h 7.08 v -5.9 h 3.55 v 5.9 h 8.27 v -43.7 h 17.71 v 83.86 h 15.36 v 23.63 h 37.8 v -23.63 h 17.72 v -83.86 h 17.71 v 43.7 h 5.91 v -5.9 h 4.72 v 5.9 h 7.09 v -5.9 h 3.55 v 5.9 h 7.08 v -5.9 h 3.55 v 5.9 h 7.08 v -5.9 h 4.73 v 5.9 h 7.09 v -5.9 h 3.54 v 5.9 h 7.09 v -5.9 h 4.72 v 5.9 h 7.09 v -5.9 h 3.54 v 5.9 h 7.09 v -5.9 h 3.54 v 5.9 h 7.09 v -5.9 h 4.72 v 5.9 h 7.09 v 0 -5.9 h 3.55 v 5.9 h 7.08 v -5.9 h 3.55 v 5.9 h 43.7 v -9.45 h 12.99 v -31.89 h 15.36 l 29.53,-244.51 c 0,-5.9 5.91,-10.63 12.99,-11.81 v 0 c 1.18,0 1.18,0 1.18,0 v 0 0 h 1.18 v 0 0 c 8.27,1.18 14.18,5.91 14.18,11.81 l 28.35,244.51 h 16.53 v 31.89 h 11.82 v 9.45 h 60.24 v 46.07 h 42.52 v -79.14 -38.98 -18.9 c 0,-7.09 4.73,-15.36 11.81,-20.08 v -30.71 h 35.44 v -12.99 -3.55 h 1.18 l 21.26,-38.98 v -15.35 h -3.54 v -2.37 h 3.54 v -5.9 h 3.54 v 5.9 h 3.55 v 2.37 h -3.55 v 11.81 h 10.64 v -11.81 h -3.55 v -2.37 h 3.55 v -5.9 h 3.54 v 5.9 h 3.54 v 2.37 h -3.54 v 15.35 l 21.26,38.98 h 56.7 v 16.54 h 5.9 l 24.81,-28.35 v -20.08 h -3.54 v -2.36 h 3.54 v -5.91 h 2.36 v 5.91 h 3.54 v 2.36 h -3.54 v 20.08 h 17.72 v -20.08 h -3.54 v -2.36 h 3.54 v -5.91 h 2.36 v 5.91 h 3.54 v 2.36 h -3.54 v 20.08 l 24.81,28.35 h 8.26 v -41.34 h 5.91 v -75.6 h 4.73 v -60.24 h -7.09 v -8.27 c 0,-3.54 3.54,-7.09 8.27,-7.09 h 8.27 v -17.71 c 0,-4.73 3.54,-10.63 9.44,-13 v -43.7 h -5.9 v -5.91 h -5.91 v -5.9 h 11.81 c 0,-4.73 3.55,-9.45 9.45,-11.82 -2.36,-1.18 -2.36,-3.54 -2.36,-4.72 v -7.09 h -7.09 v -10.63 c 0,-5.9 5.91,-10.63 13,-10.63 h 2.36 v -43.7 h -8.27 v -3.55 h 8.27 v -18.9 c 0,-1.18 1.18,-2.36 3.54,-2.36 v 0 c 1.19,0 2.37,1.18 2.37,2.36 v 18.9 h 8.26 v 3.55 h -8.26 v 43.7 h 2.36 c 7.09,0 12.99,4.73 12.99,10.63 v 10.63 h -7.09 v 7.09 c 0,1.18 0,3.54 -2.36,4.72 5.91,2.37 9.45,7.09 9.45,11.82 h 11.81 v 5.9 h -5.9 v 5.91 h -5.91 v 43.7 c 5.91,2.37 9.45,8.27 9.45,13 v 17.71 h 8.27 c 4.72,0 8.27,3.55 8.27,7.09 v 8.27 h -7.09 v 60.24 h 4.73 v 73.23 l 12.99,-33.07 v 0 -14.17 h -3.54 v -3.55 h 3.54 v -4.72 h 3.54 v 4.72 h 3.55 v 3.55 h -3.55 v 14.17 h 11.81 v -14.17 h -3.54 v -3.55 h 3.54 v -4.72 h 2.37 v 4.72 h 3.54 v 3.55 h -3.54 v 14.17 0 l 16.53,40.16 21.26,-62.6 v -9.45 h -3.54 v -2.36 h 3.54 v -5.91 h 3.55 v 5.91 h 3.54 v 2.36 h -3.54 v 9.45 l 27.17,81.5 h 92.13 l 16.54,-42.52 h 2.36 l 5.9,-18.9 v -9.45 h -3.54 v -2.36 h 3.54 v -5.91 h 3.55 v 5.91 h 3.54 v 2.36 h -3.54 v 9.45 l 5.9,18.9 h 1.19 l 9.44,24.8 14.18,-36.61 h 2.36 v -13 h -3.54 v -3.54 h 3.54 v -4.73 h 3.55 v 4.73 h 3.54 v 3.54 h -3.54 v 13 h 11.81 v -13 h -3.55 v -3.54 h 3.55 v -4.73 h 2.36 v 4.73 h 4.72 v 3.54 h -4.72 v 13 h 2.36 l 29.53,72.05 h 83.87 l 24.8,-28.35 h 2.36 v -10.63 h -3.54 v -3.54 h 3.54 v -5.91 h 2.37 v 5.91 h 3.54 v 3.54 h -3.54 v 10.63 h 12.99 v -10.63 h -4.72 v -3.54 h 4.72 v -5.91 h 2.36 v 5.91 h 3.55 v 3.54 h -3.55 v 10.63 h 2.36 l 24.81,28.35 h 2.36 v -14.18 h 59.06 l 17.72,-42.52 h 2.36 v -12.99 h -3.54 v -2.36 h 3.54 v -5.91 h 2.36 v 5.91 h 4.73 v 2.36 h -4.73 v 12.99 h 13 v -12.99 h -4.73 v -2.36 h 4.73 v -5.91 h 2.36 v 5.91 h 3.54 v 2.36 h -3.54 v 12.99 h 2.36 l 33.08,82.68 c 7.08,2.37 12.99,5.91 16.53,10.64 l 5.91,-17.72 h 3.54 v -21.26 h 5.91 v 21.26 h 2.36 l 4.73,50.79 h 4.72 v 68.51 h 148.83 V 2073 l -129.93,28.35 -2.36,-5.91 220.88,-49.61 2.36,7.09 -86.22,18.9 h 7.08 v 70.87 3.54 37.8 h 18.9 v 25.99 h 134.66 v -25.99 h 16.53 v -37.8 -3.54 -70.87 h 8.27 l -86.22,-18.9 2.36,-7.09 220.88,49.61 -2.36,5.91 -129.93,-28.35 v 69.69 h 106.31 l 50.79,-36.62 -15.36,-20.08 7.09,-3.54 14.17,18.9 11.81,-8.27 v -14.18 l 23.63,-14.17 -3.54,-2.36 -1.19,1.18 -93.31,-61.42 8.27,-7.09 9.45,-7.09 82.68,69.69 -2.36,1.18 3.54,3.55 8.27,-5.91 9.45,4.73 2.36,-2.37 -1.18,-1.18 77.96,-73.23 9.45,7.09 9.45,7.08 -89.77,64.97 -2.36,-2.36 -2.37,2.36 27.17,14.17 v 15.36 l 70.87,47.25 -8.27,7.08 -9.45,7.09 -54.33,-46.07 v 14.18 l 18.9,35.43 h 4.72 v 51.98 h 49.61 v -36.62 h 2.37 l 22.44,-12.99 v -11.82 l -23.62,22.45 -4.73,-4.73 -4.72,-3.54 33.07,-24.81 v -7.08 l 18.9,-11.82 -2.36,-2.36 v 1.18 l -51.98,-34.25 4.73,-3.54 4.72,-4.73 46.07,38.98 -1.18,1.18 2.36,2.36 4.73,-3.54 4.72,2.36 1.18,-1.18 -1.18,-1.18 43.7,-40.16 5.91,3.54 4.73,3.55 -49.61,36.61 -1.19,-1.18 -1.18,1.18 22.45,11.82 v 10.63 l 31.89,20.08 -4.73,4.72 -4.72,3.54 -22.44,-18.89 v 12.99 l 4.72,10.63 h 11.81 v 36.62 h 61.42 v 109.85 H 183.086 v -109.85"
           style="fill:#e6e6e6;fill-opacity:1;fill-rule:evenodd;stroke:none"
           id="path64"
           inkscape:connector-curvature="0" />
        <path
           d="m 991.023,3019.14 v 0 c 2.364,0 3.543,-1.19 3.543,-3.55 v -18.9 c 0,-1.18 -1.179,-2.36 -3.543,-2.36 v 0 c -1.179,0 -2.363,1.18 -2.363,2.36 v 18.9 c 0,2.36 1.184,3.55 2.363,3.55 z m -22.445,0 v 0 c 1.184,0 2.363,-1.19 2.363,-3.55 v -18.9 c 0,-1.18 -1.179,-2.36 -2.363,-2.36 v 0 c -2.359,0 -3.543,1.18 -3.543,2.36 v 18.9 c 0,2.36 1.184,3.55 3.543,3.55 z m 10.633,2.36 v 0 c 3.543,0 5.906,-2.36 5.906,-4.73 v -22.44 h -10.633 v 22.44 c 0,2.37 2.364,4.73 4.727,4.73 z m 507.909,-72.06 h 18.9 v 47.25 c 0,4.73 -4.72,8.27 -9.45,8.27 v 0 c -4.72,0 -9.45,-3.54 -9.45,-8.27 z m -25.98,0 h 17.72 v 47.25 c 0,4.73 -4.73,8.27 -9.45,8.27 v 0 c -4.73,0 -8.27,-3.54 -8.27,-8.27 z m -27.17,0 h 17.72 v 47.25 c 0,4.73 -3.54,8.27 -9.45,8.27 v 0 c -4.73,0 -8.27,-3.54 -8.27,-8.27 z m 31.89,125.21 v -9.45 h 7.09 v 9.45 z M 675.645,2624.62 h 30.71 v 63.78 c -12.992,-14.17 -31.89,-37.8 -40.16,-47.25 h 9.45 z m 1698.555,35.43 h -5.9 v -5.9 h 5.9 z m 11.81,0 h -8.26 v -5.9 h 8.26 z m 10.64,0 h -7.09 v -5.9 h 7.09 z m 10.63,0 h -7.09 v -5.9 h 7.09 z m 11.81,0 H 2412 v -5.9 h 7.09 z m 10.63,0 h -7.09 v -5.9 h 7.09 z m 10.63,0 h -7.09 v -5.9 h 7.09 z m 11.81,0 h -7.09 v -5.9 h 7.09 z m 10.63,0 h -7.08 v -5.9 h 7.08 z m 10.63,0 h -7.08 v -5.9 h 7.08 z m 11.81,0 h -7.08 v -5.9 h 7.08 z m 11.82,0 h -8.27 v -5.9 h 8.27 z m -8.27,2.36 h 8.27 v 40.16 h -8.27 z m -10.63,0 h 7.08 v 40.16 h -7.08 z m -11.81,0 h 7.08 v 40.16 h -7.08 z m -10.63,0 h 7.08 v 40.16 h -7.08 z m -10.64,0 h 7.09 v 40.16 h -7.09 z m -11.81,0 h 7.09 v 40.16 h -7.09 z m -10.63,0 h 7.09 v 40.16 h -7.09 z m -10.63,0 h 7.09 v 40.16 H 2412 Z m -11.81,0 h 7.09 v 40.16 h -7.09 z m -10.63,0 h 7.09 v 40.16 h -7.09 z m -11.81,0 h 8.26 v 40.16 h -8.26 z m -9.45,0 h 5.9 v 40.16 h -5.9 z m 240.96,-2.36 h -5.91 v -5.9 h 5.91 z m 11.81,0 h -7.09 v -5.9 h 7.09 z m 10.63,0 h -7.08 v -5.9 h 7.08 z m 10.63,0 h -7.08 v -5.9 h 7.08 z m 11.82,0 h -7.09 v -5.9 h 7.09 z m 10.63,0 h -7.09 v -5.9 h 7.09 z m 11.81,0 h -7.09 v -5.9 h 7.09 z m 10.63,0 h -7.09 v -5.9 h 7.09 z m 10.63,0 h -7.09 v -5.9 h 7.09 z m 11.81,0 h -7.09 v -5.9 h 7.09 z m -7.09,2.36 h 7.09 v 40.16 h -7.09 z m -11.81,0 h 7.09 v 40.16 h -7.09 z m -10.63,0 h 7.09 v 40.16 h -7.09 z m -10.63,0 h 7.09 v 40.16 h -7.09 z m -11.81,0 h 7.09 v 40.16 h -7.09 z m -10.63,0 h 7.09 v 40.16 h -7.09 z m -11.81,0 h 7.08 v 40.16 h -7.08 z m -10.63,0 h 7.08 v 40.16 h -7.08 z m -10.64,0 h 7.09 v 40.16 h -7.09 z m -10.63,0 h 5.91 v 40.16 h -5.91 z m 1403.26,-7.08 v -30.71 h 115.76 v 33.07 h 8.27 c -16.54,9.45 -37.8,16.54 -60.24,16.54 -24.81,0 -47.25,-7.09 -63.79,-18.9 z m 341.37,2.36 h 8.27 v -33.07 h 111.03 v 33.07 h 2.36 c -16.53,9.45 -37.8,16.54 -60.24,16.54 -23.62,0 -44.88,-7.09 -61.42,-16.54 z m 159.46,90.95 3.54,-7.09 v 11.82 z m -23.62,-28.35 21.26,15.36 -3.54,7.09 z m -11.81,64.97 -220.89,62.6 -2.36,-8.27 220.88,-62.6 z m -467.76,0 222.07,62.6 2.36,-8.27 -222.07,-62.6 z m 115.76,-79.14 v -15.36 h 21.26 v 15.36 z m -27.17,0 v -15.36 h 23.63 v 15.36 z m -27.17,0 v -15.36 h 23.63 v 15.36 z m -27.16,0 v -15.36 h 23.62 v 15.36 z m -27.17,0 v -15.36 h 23.62 v 15.36 z m -18.9,0 v -15.36 h 15.36 v 15.36 z m 479.57,0 h 17.71 l 5.91,-7.09 v -8.27 h -9.45 -16.54 v 11.81 z m -29.53,0 h 1.18 l 5.9,-5.91 9.45,-9.45 7.09,8.27 v -8.27 h -23.62 z m 44.88,3.54 h -11.81 l 5.9,8.27 z m -72.05,-3.54 v -15.36 h 23.62 v 15.36 z m -27.17,0 v -15.36 h 23.62 v 15.36 z m -27.17,0 v -15.36 h 23.63 v 15.36 z m -24.8,0 v -15.36 h 21.26 v 15.36 z m -2651.79,525.63 v 0 c 3.55,0 5.91,-2.36 5.91,-5.91 v -41.34 h -11.81 v 41.34 c 0,3.55 2.36,5.91 5.9,5.91 z m -14.17,0 v 0 c 3.54,0 5.91,-2.36 5.91,-5.91 v -41.34 h -11.82 v 41.34 c 0,3.55 2.37,5.91 5.91,5.91 z m 17.72,-95.68 v 0 c 4.72,0 8.27,-3.54 8.27,-8.26 v -37.8 h -16.54 v 37.8 c 0,4.72 3.54,8.26 8.27,8.26 z m -21.26,0 v 0 c 4.72,0 8.26,-3.54 8.26,-8.26 v -37.8 h -16.53 v 37.8 c 0,4.72 3.54,8.26 8.27,8.26 z M 183.086,2624.62 h 46.066 v 16.53 h 43.703 c -27.167,44.89 -75.593,132.3 -75.593,132.3 -3.547,46.06 426.41,-51.98 509.093,-70.88 v 55.52 h 15.356 v 85.05 0 49.61 h 5.906 v -36.62 h 4.723 v 15.36 c 0,2.36 1.183,4.72 4.726,7.08 v 3.55 h -5.906 v 5.9 h 4.727 v 4.73 h 1.179 v 18.9 c 0,9.45 4.727,18.9 11.813,22.44 h -1.184 v 8.27 h -3.543 v 4.72 h 3.543 v 5.91 h 7.09 v 46.06 h 5.906 v -46.06 h 7.086 v -5.91 h 3.543 v -4.72 h -3.543 v -8.27 h -1.179 c 7.086,-3.54 11.808,-12.99 11.808,-22.44 v -18.9 h 2.364 v -4.73 h 3.543 v -5.9 h -5.907 v -3.55 c 3.543,-2.36 5.907,-4.72 5.907,-7.08 v -15.36 h 4.726 v 36.62 h 4.723 v -49.61 0 -41.34 l 24.804,30.71 h 3.547 v 30.71 h 4.723 v -30.71 h 10.633 v 20.08 h -5.906 v 5.9 h 3.542 v 4.73 h 2.364 v 18.9 c 0,9.45 4.722,18.9 11.808,22.44 h -1.179 v 8.27 h -3.543 v 5.9 h 3.543 v 4.73 h 7.086 v 46.07 h 4.726 v -46.07 h 8.27 v -4.73 h 3.543 v -5.9 h -3.543 v -8.27 h -1.184 c 7.09,-3.54 11.813,-12.99 11.813,-22.44 v -18.9 h 1.179 v -4.73 h 4.727 v -5.9 h -5.906 v -20.08 h 9.449 v 30.71 h 5.906 v -30.71 h 8.27 v 11.81 h 4.722 v 18.9 h 5.907 v -18.9 h 5.906 v -11.81 h 5.906 v 74.41 h -9.449 v 7.09 h 10.633 v 11.81 h -4.727 v 7.09 h 4.727 v 5.9 c 0,20.08 10.629,37.8 27.168,47.25 v 9.45 h 5.906 v 24.81 c 0,10.63 7.086,18.9 17.715,20.08 v 20.08 h -5.907 v 5.9 h 5.907 v 4.73 h 5.906 v -4.73 h 5.906 v -5.9 h -5.906 v -20.08 c 10.633,-1.18 17.716,-9.45 17.716,-20.08 v -24.81 h 5.91 v -9.45 c 16.54,-9.45 27.17,-27.17 27.17,-47.25 v -5.9 h 4.72 v -7.09 h -4.72 v -11.81 h 10.63 v -7.09 h -9.45 v -74.41 h 15.35 l 44.89,-74.42 v -35.43 h 29.53 v 129.93 h -11.81 v 9.45 h 17.71 l 28.35,40.16 v 0 l 1.18,14.17 h 11.82 V 2940 h -5.91 v 4.72 h 5.91 v 9.45 h 8.26 v -9.45 h 5.91 V 2940 h -5.91 v -23.63 h 13 v -14.17 h 17.72 v 23.62 h -5.91 v 4.73 h 5.91 v 9.45 h 8.26 v -9.45 h 5.91 v -4.73 h -5.91 v -23.62 h 134.66 v 23.62 h -3.54 v 4.73 h 3.54 v 9.45 h 12.99 v -9.45 h 3.55 v -4.73 h -3.55 v -23.62 h 46.07 5.91 v 37.8 h 5.9 v 72.05 h -3.54 v 11.81 h 8.27 v 15.36 c 0,7.08 5.9,11.81 11.81,11.81 h 1.18 v 2.36 c 0,5.91 4.72,11.81 11.81,11.81 h 8.27 v 9.45 h -3.54 v 8.27 c 0,2.36 2.36,4.72 4.72,4.72 h 3.54 v 23.63 h -4.72 v 2.36 h 4.72 v 7.09 h 4.73 v -7.09 h 4.72 v -2.36 h -4.72 v -23.63 h 4.72 c 2.37,0 4.73,-2.36 4.73,-4.72 v -8.27 h -3.54 v -9.45 h 8.26 c 5.91,0 11.82,-5.9 11.82,-11.81 v -2.36 0 c 7.08,0 11.81,-4.73 11.81,-11.81 v -15.36 h 8.27 v -11.81 h -3.55 V 2940 h 5.91 v -37.8 h 3.54 48.43 v 23.62 h -3.54 v 4.73 h 3.54 v 9.45 h 12.99 v -9.45 h 3.55 v -4.73 h -3.55 v -23.62 h 33.08 v 113.39 c 0,7.09 4.72,11.81 11.81,11.81 h 4.72 v 44.89 c 0,1.18 0,2.36 0,3.54 h -9.45 v 5.91 h 11.82 V 3103 h 3.54 v -21.26 h 3.54 v 8.27 h 2.37 v -8.27 h 3.54 v 61.42 h -7.09 v 5.91 h 7.09 v 4.72 c 0,8.27 4.72,16.54 10.63,21.26 v 59.06 c 0,8.27 5.91,14.18 14.17,16.54 v 8.27 h -2.36 c -5.9,0 -10.63,4.72 -11.81,9.45 h -5.91 v 3.54 h 5.91 c 1.18,5.91 5.91,9.45 11.81,9.45 h 2.36 v 16.54 h -4.72 v 3.54 h 4.72 v 14.18 h -4.72 v 3.54 h 4.72 v 21.26 h -4.72 v 3.54 h 4.72 4.73 4.72 v -3.54 h -4.72 v -21.26 h 4.72 v -3.54 h -4.72 v -14.18 h 4.72 v -3.54 h -4.72 v -16.54 h 2.36 c 5.91,0 10.63,-3.54 11.81,-9.45 h 5.91 v -3.54 h -5.91 c -1.18,-4.73 -5.9,-9.45 -11.81,-9.45 h -2.36 v -8.27 c 8.27,-2.36 14.17,-8.27 14.17,-16.54 v -59.06 c 5.91,-4.72 10.63,-12.99 10.63,-21.26 v -4.72 h 7.09 v -5.91 h -7.09 v -61.42 h 3.55 v 8.27 h 2.36 v -8.27 h 3.54 V 3103 h 3.55 v -21.26 h 11.81 v -5.91 h -9.45 c 0,-1.18 0,-2.36 0,-3.54 v -44.89 h 4.73 c 7.08,0 11.81,-4.72 11.81,-11.81 V 2902.2 h 7.08 l 1.19,14.17 h 11.81 V 2940 h -5.91 v 4.72 h 5.91 v 9.45 h 8.27 v -9.45 h 5.9 V 2940 h -5.9 v -23.63 h 12.99 v -14.17 0 l 28.35,-40.16 h 17.72 v -9.45 h -11.82 v -129.93 h 35.44 v 108.67 h -15.36 v 8.26 h 15.36 v 28.35 h 9.45 v 10.63 h 7.09 v 18.9 24.81 h 4.72 v -24.81 h 21.26 v 24.81 h 4.73 v -24.81 -18.9 h 7.08 v -10.63 h 9.45 v -28.35 h 36.62 v 25.99 h -10.63 v 4.72 h 16.54 c 0,0 99.22,46.07 131.11,60.25 v 12.99 h -8.27 v 5.9 h 4.73 c -1.19,1.19 -1.19,2.37 -1.19,3.55 v 0 c 0,2.36 0,3.54 1.19,4.72 h -4.73 v 4.73 h 12.99 v 8.27 h 4.73 v -8.27 h 12.99 v -4.73 h -4.72 c 1.18,-1.18 1.18,-2.36 1.18,-4.72 v 0 c 0,-1.18 0,-2.36 -1.18,-3.55 h 4.72 v -5.9 h -8.27 v -12.99 c 30.72,-14.18 129.94,-60.25 129.94,-60.25 h 17.71 v -4.72 H 2236 v -25.99 h 35.44 v 28.35 h 10.63 v 10.63 h 7.09 v 18.9 24.81 h 4.72 v -24.81 h 20.08 v 24.81 h 5.91 v -24.81 -18.9 h 5.9 v -10.63 h 10.63 v -28.35 h 14.18 v -8.26 h -14.18 v -108.67 h 31.9 v -16.54 h 5.9 v 8.27 h 3.55 v -8.27 h 8.26 v 8.27 h 3.55 v -8.27 h 7.09 v 8.27 h 3.54 v -8.27 h 7.09 v 8.27 h 4.72 v -8.27 h 7.09 v 8.27 h 3.54 v -8.27 h 7.09 v 8.27 h 3.54 v -8.27 h 7.09 v 8.27 h 4.72 v -8.27 h 7.09 v 8.27 h 3.55 v -8.27 h 7.08 v 8.27 h 3.55 v -8.27 h 7.08 v 8.27 h 4.73 v -8.27 h 7.08 v 8.27 h 3.55 v -8.27 h 8.27 v 55.51 h 17.71 v -107.48 h 15.36 v -29.53 h 37.8 v 29.53 h 17.72 v 107.48 h 17.71 v -55.51 h 5.91 v 8.27 h 4.72 v -8.27 h 7.09 v 8.27 h 3.55 v -8.27 h 7.08 v 8.27 h 3.55 v -8.27 h 7.08 v 8.27 h 4.73 v -8.27 h 7.09 v 8.27 h 3.54 v -8.27 h 7.09 v 8.27 h 4.72 v -8.27 h 7.09 v 8.27 h 3.54 v -8.27 h 7.09 v 8.27 h 3.54 v -8.27 h 7.09 v 8.27 h 4.72 v -8.27 h 7.09 v 0 8.27 h 3.55 v -8.27 h 7.08 v 8.27 h 3.55 v -8.27 h 43.7 v 12.99 h 12.99 v 40.16 h 15.36 l 29.53,310.66 c 0,8.27 5.91,14.17 12.99,15.35 v 0 c 1.18,0 1.18,0 1.18,0 v 0 0 h 1.18 v 0 0 c 8.27,-1.18 14.18,-7.08 14.18,-15.35 l 28.35,-310.66 h 16.53 v -40.16 h 11.82 v -12.99 h 60.24 v -57.88 h 42.52 v 99.22 49.61 24.81 c 0,9.45 4.73,18.89 11.81,25.98 v 38.98 h 35.44 v 16.54 3.54 h 1.18 l 21.26,50.79 v 18.9 h -3.54 v 3.55 h 3.54 v 7.08 h 3.54 v -7.08 h 3.55 v -3.55 h -3.55 v -15.35 h 10.64 v 15.35 h -3.55 v 3.55 h 3.55 v 7.08 h 3.54 v -7.08 h 3.54 v -3.55 h -3.54 v -18.9 l 21.26,-50.79 h 56.7 v -20.08 h 5.9 l 24.81,36.62 v 24.8 h -3.54 v 3.55 h 3.54 v 7.08 h 2.36 v -7.08 h 3.54 v -3.55 h -3.54 v -24.8 h 17.72 v 24.8 h -3.54 v 3.55 h 3.54 v 7.08 h 2.36 v -7.08 h 3.54 v -3.55 h -3.54 v -25.98 l 24.81,-35.44 H 3266 V 2940 h 5.91 v 95.67 h 4.73 v 77.96 h -7.09 v 9.45 c 0,4.73 3.54,9.45 8.27,9.45 h 8.27 v 21.26 c 0,7.09 3.54,14.18 9.44,17.72 v 56.7 h -5.9 v 5.9 h -5.91 v 8.27 h 11.81 c 0,7.09 3.55,11.81 9.45,15.36 -2.36,1.18 -2.36,3.54 -2.36,5.9 v 8.27 h -7.09 v 14.18 c 0,7.08 5.91,14.17 13,14.17 h 2.36 v 55.52 h -8.27 v 4.72 h 8.27 v 23.62 c 0,2.37 1.18,3.55 3.54,3.55 v 0 c 1.19,0 2.37,-1.18 2.37,-3.55 v -23.62 h 8.26 v -4.72 h -8.26 v -55.52 h 2.36 c 7.09,0 12.99,-7.09 12.99,-14.17 v -14.18 h -7.09 v -8.27 c 0,-2.36 0,-4.72 -2.36,-5.9 5.91,-3.55 9.45,-8.27 9.45,-15.36 h 11.81 v -8.27 h -5.9 v -5.9 h -5.91 v -56.7 c 5.91,-3.54 9.45,-10.63 9.45,-17.72 v -21.26 h 8.27 c 4.72,0 8.27,-4.72 8.27,-9.45 v -9.45 h -7.09 v -77.96 h 4.73 v -93.31 l 12.99,41.34 v 0 20.08 h -3.54 v 3.54 h 3.54 v 7.09 h 3.54 v -7.09 h 3.55 v -3.54 h -3.55 v -20.08 h 11.81 v 20.08 h -3.54 v 3.54 h 3.54 v 7.09 h 2.37 v -7.09 h 3.54 v -3.54 h -3.54 v -20.08 0 l 16.53,-49.61 21.26,79.14 v 11.81 h -3.54 v 3.54 h 3.54 v 7.09 h 3.55 v -7.09 h 3.54 v -3.54 h -3.54 v -11.81 L 3455,2909.28 h 92.13 l 16.54,54.34 h 2.36 l 5.9,23.62 v 11.81 h -3.54 v 4.73 h 3.54 v 7.09 h 3.55 v -7.09 h 3.54 v -4.73 h -3.54 v -11.81 l 5.9,-23.62 h 1.19 l 9.44,-31.89 14.18,46.06 h 2.36 v 17.72 h -3.54 v 3.54 h 3.54 v 7.09 h 3.55 v -7.09 h 3.54 v -3.54 h -3.54 v -17.72 h 11.81 v 17.72 h -3.55 v 3.54 h 3.55 v 7.09 h 2.36 v -7.09 h 4.72 v -3.54 h -4.72 v -17.72 h 2.36 l 29.53,-90.95 h 83.87 l 24.8,36.62 h 2.36 v 14.17 h -3.54 v 3.55 h 3.54 v 7.08 h 2.37 v -7.08 h 3.54 v -3.55 h -3.54 v -14.17 h 12.99 v 14.17 h -4.72 v 3.55 h 4.72 v 7.08 h 2.36 v -7.08 h 3.55 v -3.55 h -3.55 v -14.17 h 2.36 l 24.81,-36.62 h 2.36 v 17.72 h 59.06 l 17.72,54.33 h 2.36 v 16.54 h -3.54 v 3.54 h 3.54 v 7.09 h 2.36 v -7.09 h 4.73 v -3.54 h -4.73 v -16.54 h 13 v 16.54 h -4.73 v 3.54 h 4.73 v 7.09 h 2.36 v -7.09 h 3.54 v -3.54 h -3.54 v -16.54 h 2.36 l 33.08,-105.12 c 7.08,-2.36 12.99,-7.09 16.53,-13 l 5.91,22.45 h 3.54 v 27.16 h 5.91 v -27.16 h 2.36 l 4.73,-66.15 h 4.72 v -87.41 h 148.83 v 89.77 l -129.93,-36.61 -2.36,8.26 220.88,62.61 2.36,-8.27 -86.22,-24.81 h 7.08 v -90.95 -3.54 -48.43 h 18.9 v -33.07 h 134.66 v 33.07 h 16.53 v 48.43 3.54 90.95 h 8.27 l -86.22,24.81 2.36,8.27 220.88,-62.61 -2.36,-8.26 -129.93,36.61 v -89.77 h 106.31 l 50.79,47.25 -15.36,25.99 7.09,4.72 14.17,-24.8 11.81,10.63 v 17.71 l 23.63,18.9 -3.54,2.37 -1.19,-1.18 -93.31,79.13 8.27,8.27 9.45,9.45 82.68,-89.77 -2.36,-1.18 3.54,-3.54 8.27,5.9 9.45,-5.9 2.36,3.54 -1.18,2.36 77.96,93.32 9.45,-9.45 9.45,-8.27 -89.77,-82.68 -2.36,1.18 -2.37,-2.36 27.17,-17.72 v -20.08 l 70.87,-60.24 -8.27,-8.27 -9.45,-9.45 -54.33,59.06 v -18.9 l 18.9,-44.89 h 4.72 v -66.14 h 49.61 v 47.24 h 2.37 l 22.44,15.36 v 16.54 l -23.62,-28.35 -4.73,4.72 -4.72,4.73 33.07,31.89 v 8.27 l 18.9,16.53 -2.36,1.19 v -1.19 l -51.98,43.71 4.73,5.9 4.72,4.73 46.07,-49.61 -1.18,-1.18 2.36,-2.36 4.73,3.54 4.72,-2.36 1.18,1.18 -1.18,1.18 43.7,51.97 5.91,-4.72 4.73,-4.73 -49.61,-46.06 h -1.19 l -1.18,-1.19 22.45,-14.17 v -12.99 l 31.89,-27.17 -4.73,-4.73 -4.72,-4.72 -22.44,23.62 v -16.53 l 4.72,-13 h 11.81 v -47.24 h 61.42 V 2319.87 H 183.086 v 304.75"
           style="fill:#000000;fill-opacity:1;fill-rule:evenodd;stroke:none"
           id="path66"
           inkscape:connector-curvature="0" />
        <path
           d="m 1763.64,380.879 c 0,-4.399 0.68,-8.129 2.05,-11.219 1.36,-3.09 3.23,-5.41 5.6,-6.969 2.38,-1.57 4.97,-2.351 7.78,-2.351 2.85,0 5.45,0.742 7.81,2.23 2.35,1.481 4.23,3.762 5.64,6.821 1.4,3.07 2.1,6.91 2.1,11.488 0,4.32 -0.7,8.031 -2.1,11.141 -1.41,3.101 -3.31,5.468 -5.7,7.121 -2.4,1.64 -5.02,2.461 -7.87,2.461 -2.96,0 -5.61,-0.852 -7.95,-2.532 -2.34,-1.672 -4.15,-4.082 -5.43,-7.23 -1.29,-3.149 -1.93,-6.801 -1.93,-10.961 z m 31.88,-23.797 v 1.598 c -2.18,-2.489 -4.33,-4.52 -6.45,-6.078 -2.11,-1.571 -4.41,-2.762 -6.88,-3.563 -2.48,-0.828 -5.17,-1.219 -8.1,-1.219 -3.89,0 -7.48,0.809 -10.78,2.461 -3.3,1.641 -6.16,3.989 -8.57,7.028 -2.42,3.05 -4.25,6.632 -5.5,10.75 -1.24,4.113 -1.87,8.57 -1.87,13.351 0,10.129 2.48,18.039 7.42,23.692 4.95,5.66 11.46,8.488 19.53,8.488 4.67,0 8.61,-0.809 11.82,-2.399 3.2,-1.609 6.33,-4.082 9.38,-7.39 v 23.918 c 0,3.32 0.66,5.832 1.99,7.543 1.32,1.699 3.21,2.547 5.66,2.547 2.46,0 4.34,-0.778 5.67,-2.348 1.33,-1.57 1.99,-3.859 1.99,-6.91 v -71.469 c 0,-3.094 -0.71,-5.41 -2.14,-6.953 -1.42,-1.539 -3.26,-2.309 -5.52,-2.309 -2.21,0 -4.04,0.801 -5.49,2.399 -1.44,1.613 -2.16,3.89 -2.16,6.863"
           style="fill:#808080;fill-opacity:1;fill-rule:nonzero;stroke:none"
           id="path70"
           inkscape:connector-curvature="0" />
        <path
           d="m 1835.28,385.98 h 29.39 c -0.39,5.54 -1.9,9.692 -4.49,12.442 -2.59,2.75 -6,4.129 -10.24,4.129 -4.03,0 -7.35,-1.391 -9.94,-4.18 -2.59,-2.789 -4.16,-6.922 -4.72,-12.391 z m 31.7,-9.199 h -31.7 c 0.04,-3.679 0.78,-6.922 2.23,-9.73 1.44,-2.809 3.36,-4.93 5.75,-6.352 2.4,-1.429 5.04,-2.129 7.93,-2.129 1.94,0 3.71,0.219 5.31,0.672 1.61,0.457 3.16,1.156 4.67,2.137 1.5,0.961 2.88,2.012 4.15,3.121 1.26,1.109 2.9,2.621 4.92,4.512 0.83,0.707 2.02,1.07 3.57,1.07 1.66,0 3.01,-0.461 4.03,-1.371 1.03,-0.922 1.55,-2.191 1.55,-3.859 0,-1.461 -0.58,-3.172 -1.72,-5.133 -1.16,-1.957 -2.89,-3.84 -5.2,-5.637 -2.32,-1.801 -5.22,-3.293 -8.73,-4.48 -3.5,-1.192 -7.52,-1.782 -12.08,-1.782 -10.4,0 -18.5,2.969 -24.27,8.899 -5.78,5.933 -8.67,13.992 -8.67,24.16 0,4.793 0.71,9.23 2.14,13.32 1.42,4.11 3.5,7.61 6.23,10.543 2.73,2.93 6.09,5.168 10.09,6.738 4,1.571 8.43,2.34 13.3,2.34 6.33,0 11.76,-1.32 16.29,-4 4.53,-2.672 7.93,-6.129 10.18,-10.351 2.25,-4.239 3.39,-8.559 3.39,-12.938 0,-4.09 -1.17,-6.73 -3.5,-7.941 -2.34,-1.199 -5.62,-1.809 -9.86,-1.809"
           style="fill:#808080;fill-opacity:1;fill-rule:nonzero;stroke:none"
           id="path72"
           inkscape:connector-curvature="0" />
        <path
           d="m 1940.82,369.012 c 0,-4.473 -1.08,-8.301 -3.27,-11.492 -2.17,-3.18 -5.39,-5.598 -9.64,-7.239 -4.25,-1.652 -9.43,-2.461 -15.52,-2.461 -5.82,0 -10.81,0.891 -14.96,2.672 -4.16,1.778 -7.23,4.008 -9.2,6.668 -1.98,2.68 -2.97,5.352 -2.97,8.051 0,1.781 0.63,3.301 1.9,4.57 1.26,1.258 2.87,1.899 4.81,1.899 1.7,0 3,-0.418 3.91,-1.25 0.91,-0.828 1.79,-2 2.61,-3.5 1.66,-2.899 3.66,-5.039 5.97,-6.469 2.32,-1.422 5.47,-2.141 9.47,-2.141 3.25,0 5.91,0.731 7.99,2.172 2.07,1.449 3.11,3.098 3.11,4.957 0,2.852 -1.07,4.922 -3.24,6.231 -2.15,1.3 -5.7,2.55 -10.65,3.742 -5.58,1.379 -10.12,2.84 -13.62,4.367 -3.51,1.512 -6.31,3.531 -8.4,6.02 -2.1,2.492 -3.15,5.562 -3.15,9.203 0,3.238 0.97,6.308 2.91,9.199 1.94,2.879 4.8,5.187 8.58,6.91 3.78,1.731 8.33,2.59 13.68,2.59 4.19,0 7.97,-0.43 11.3,-1.313 3.35,-0.859 6.15,-2.039 8.38,-3.507 2.24,-1.45 3.94,-3.082 5.1,-4.852 1.17,-1.789 1.75,-3.527 1.75,-5.23 0,-1.86 -0.62,-3.387 -1.86,-4.579 -1.25,-1.171 -3.02,-1.781 -5.32,-1.781 -1.66,0 -3.08,0.481 -4.24,1.442 -1.17,0.941 -2.5,2.359 -4.01,4.257 -1.23,1.582 -2.66,2.852 -4.33,3.813 -1.66,0.949 -3.92,1.418 -6.77,1.418 -2.93,0 -5.36,-0.617 -7.3,-1.879 -1.94,-1.238 -2.91,-2.789 -2.91,-4.648 0,-1.711 0.71,-3.102 2.13,-4.18 1.43,-1.102 3.35,-2 5.77,-2.711 2.41,-0.711 5.73,-1.57 9.97,-2.602 5.02,-1.238 9.13,-2.699 12.32,-4.398 3.18,-1.699 5.59,-3.711 7.24,-6.031 1.64,-2.309 2.46,-4.95 2.46,-7.918"
           style="fill:#808080;fill-opacity:1;fill-rule:nonzero;stroke:none"
           id="path74"
           inkscape:connector-curvature="0" />
        <path
           d="m 1965.39,404.512 v -46.84 c 0,-3.242 -0.77,-5.703 -2.31,-7.363 -1.55,-1.661 -3.5,-2.489 -5.88,-2.489 -2.38,0 -4.31,0.852 -5.79,2.551 -1.49,1.699 -2.23,4.141 -2.23,7.301 v 46.367 c 0,3.191 0.74,5.609 2.23,7.242 1.48,1.617 3.41,2.43 5.79,2.43 2.38,0 4.33,-0.813 5.88,-2.43 1.54,-1.633 2.31,-3.89 2.31,-6.769 z m -8.01,16.726 c -2.26,0 -4.19,0.703 -5.79,2.082 -1.6,1.379 -2.41,3.34 -2.41,5.879 0,2.301 0.83,4.18 2.47,5.672 1.64,1.488 3.55,2.231 5.73,2.231 2.09,0 3.95,-0.672 5.57,-2.02 1.63,-1.352 2.44,-3.301 2.44,-5.883 0,-2.488 -0.79,-4.437 -2.38,-5.847 -1.58,-1.403 -3.46,-2.114 -5.63,-2.114"
           style="fill:#808080;fill-opacity:1;fill-rule:nonzero;stroke:none"
           id="path76"
           inkscape:connector-curvature="0" />
        <path
           d="m 1989.43,381.289 c 0,-6.559 1.43,-11.527 4.3,-14.887 2.87,-3.371 6.58,-5.05 11.13,-5.05 2.69,0 5.23,0.718 7.62,2.168 2.4,1.441 4.35,3.621 5.86,6.531 1.5,2.91 2.25,6.429 2.25,10.59 0,6.609 -1.45,11.757 -4.36,15.429 -2.91,3.68 -6.74,5.532 -11.49,5.532 -4.63,0 -8.34,-1.77 -11.13,-5.293 -2.79,-3.52 -4.18,-8.528 -4.18,-15.02 z m 46.96,20.543 v -47.07 c 0,-5.383 -0.58,-10.012 -1.73,-13.891 -1.14,-3.871 -2.99,-7.082 -5.52,-9.621 -2.54,-2.52 -5.85,-4.41 -9.94,-5.629 -4.1,-1.23 -9.19,-1.84 -15.29,-1.84 -5.58,0 -10.57,0.778 -14.96,2.34 -4.39,1.57 -7.77,3.578 -10.15,6.051 -2.37,2.476 -3.57,5.019 -3.57,7.629 0,1.98 0.68,3.597 2.03,4.84 1.34,1.25 2.97,1.871 4.86,1.871 2.38,0 4.45,-1.051 6.24,-3.141 0.86,-1.07 1.76,-2.16 2.69,-3.242 0.94,-1.098 1.97,-2.02 3.09,-2.797 1.13,-0.762 2.49,-1.34 4.07,-1.711 1.58,-0.371 3.41,-0.57 5.46,-0.57 4.2,0 7.45,0.578 9.77,1.758 2.32,1.16 3.94,2.8 4.87,4.902 0.93,2.078 1.47,4.328 1.63,6.73 0.16,2.399 0.27,6.239 0.35,11.547 -2.49,-3.488 -5.36,-6.136 -8.64,-7.957 -3.26,-1.82 -7.15,-2.73 -11.66,-2.73 -5.42,0 -10.16,1.39 -14.22,4.16 -4.05,2.769 -7.17,6.641 -9.34,11.629 -2.18,4.992 -3.26,10.742 -3.26,17.269 0,4.871 0.65,9.27 1.98,13.18 1.33,3.93 3.22,7.231 5.67,9.922 2.45,2.687 5.28,4.719 8.49,6.078 3.2,1.371 6.72,2.051 10.56,2.051 4.59,0 8.57,-0.891 11.94,-2.641 3.36,-1.769 6.49,-4.527 9.37,-8.289 v 2.211 c 0,2.801 0.69,4.981 2.08,6.531 1.39,1.539 3.17,2.309 5.35,2.309 3.12,0 5.2,-1.02 6.23,-3.063 1.03,-2.039 1.55,-4.976 1.55,-8.816"
           style="fill:#808080;fill-opacity:1;fill-rule:nonzero;stroke:none"
           id="path78"
           inkscape:connector-curvature="0" />
        <path
           d="m 2062.14,404.742 v -1.953 c 2.84,3.762 5.96,6.512 9.35,8.281 3.38,1.762 7.27,2.641 11.66,2.641 4.28,0 8.09,-0.93 11.46,-2.789 3.36,-1.871 5.88,-4.5 7.53,-7.891 1.08,-1.98 1.77,-4.129 2.08,-6.422 0.32,-2.3 0.49,-5.218 0.49,-8.777 v -30.16 c 0,-3.242 -0.75,-5.703 -2.24,-7.363 -1.48,-1.661 -3.41,-2.489 -5.78,-2.489 -2.42,0 -4.38,0.852 -5.88,2.551 -1.51,1.699 -2.25,4.141 -2.25,7.301 v 27.008 c 0,5.34 -0.75,9.429 -2.23,12.261 -1.49,2.821 -4.44,4.25 -8.88,4.25 -2.88,0 -5.52,-0.859 -7.89,-2.589 -2.38,-1.723 -4.12,-4.09 -5.23,-7.09 -0.79,-2.422 -1.18,-6.93 -1.18,-13.543 v -20.297 c 0,-3.281 -0.77,-5.75 -2.29,-7.391 -1.52,-1.652 -3.49,-2.461 -5.9,-2.461 -2.34,0 -4.26,0.852 -5.76,2.551 -1.5,1.699 -2.26,4.141 -2.26,7.301 v 46.84 c 0,3.078 0.67,5.386 2.02,6.918 1.34,1.519 3.18,2.281 5.52,2.281 1.42,0 2.71,-0.34 3.86,-1.012 1.14,-0.679 2.07,-1.687 2.76,-3.027 0.69,-1.34 1.04,-2.992 1.04,-4.93"
           style="fill:#808080;fill-opacity:1;fill-rule:nonzero;stroke:none"
           id="path80"
           inkscape:connector-curvature="0" />
        <path
           d="m 2129.03,385.98 h 29.39 c -0.4,5.54 -1.89,9.692 -4.48,12.442 -2.6,2.75 -6.01,4.129 -10.24,4.129 -4.04,0 -7.36,-1.391 -9.95,-4.18 -2.6,-2.789 -4.16,-6.922 -4.72,-12.391 z m 31.7,-9.199 h -31.7 c 0.05,-3.679 0.78,-6.922 2.23,-9.73 1.44,-2.809 3.36,-4.93 5.76,-6.352 2.39,-1.429 5.03,-2.129 7.92,-2.129 1.94,0 3.71,0.219 5.32,0.672 1.59,0.457 3.15,1.156 4.66,2.137 1.5,0.961 2.88,2.012 4.16,3.121 1.26,1.109 2.9,2.621 4.92,4.512 0.83,0.707 2.01,1.07 3.56,1.07 1.66,0 3.01,-0.461 4.04,-1.371 1.03,-0.922 1.54,-2.191 1.54,-3.859 0,-1.461 -0.57,-3.172 -1.72,-5.133 -1.15,-1.957 -2.88,-3.84 -5.2,-5.637 -2.32,-1.801 -5.22,-3.293 -8.72,-4.48 -3.51,-1.192 -7.53,-1.782 -12.08,-1.782 -10.41,0 -18.5,2.969 -24.29,8.899 -5.77,5.933 -8.66,13.992 -8.66,24.16 0,4.793 0.71,9.23 2.14,13.32 1.42,4.11 3.5,7.61 6.23,10.543 2.73,2.93 6.1,5.168 10.09,6.738 4,1.571 8.43,2.34 13.3,2.34 6.33,0 11.76,-1.32 16.29,-4 4.53,-2.672 7.93,-6.129 10.19,-10.351 2.25,-4.239 3.38,-8.559 3.38,-12.938 0,-4.09 -1.17,-6.73 -3.5,-7.941 -2.34,-1.199 -5.62,-1.809 -9.86,-1.809"
           style="fill:#808080;fill-opacity:1;fill-rule:nonzero;stroke:none"
           id="path82"
           inkscape:connector-curvature="0" />
        <path
           d="m 2194.92,380.879 c 0,-4.399 0.68,-8.129 2.04,-11.219 1.37,-3.09 3.24,-5.41 5.62,-6.969 2.37,-1.57 4.96,-2.351 7.77,-2.351 2.85,0 5.45,0.742 7.8,2.23 2.36,1.481 4.24,3.762 5.64,6.821 1.41,3.07 2.11,6.91 2.11,11.488 0,4.32 -0.7,8.031 -2.11,11.141 -1.4,3.101 -3.3,5.468 -5.69,7.121 -2.4,1.64 -5.02,2.461 -7.87,2.461 -2.96,0 -5.62,-0.852 -7.95,-2.532 -2.34,-1.672 -4.15,-4.082 -5.44,-7.23 -1.28,-3.149 -1.92,-6.801 -1.92,-10.961 z m 31.87,-23.797 v 1.598 c -2.18,-2.489 -4.32,-4.52 -6.44,-6.078 -2.12,-1.571 -4.41,-2.762 -6.88,-3.563 -2.47,-0.828 -5.18,-1.219 -8.1,-1.219 -3.89,0 -7.48,0.809 -10.78,2.461 -3.3,1.641 -6.16,3.989 -8.58,7.028 -2.41,3.05 -4.24,6.632 -5.49,10.75 -1.25,4.113 -1.87,8.57 -1.87,13.351 0,10.129 2.47,18.039 7.42,23.692 4.95,5.66 11.46,8.488 19.53,8.488 4.67,0 8.61,-0.809 11.82,-2.399 3.2,-1.609 6.33,-4.082 9.37,-7.39 v 23.918 c 0,3.32 0.67,5.832 1.99,7.543 1.32,1.699 3.22,2.547 5.67,2.547 2.45,0 4.34,-0.778 5.67,-2.348 1.33,-1.57 1.99,-3.859 1.99,-6.91 v -71.469 c 0,-3.094 -0.71,-5.41 -2.14,-6.953 -1.42,-1.539 -3.26,-2.309 -5.52,-2.309 -2.21,0 -4.04,0.801 -5.49,2.399 -1.45,1.613 -2.17,3.89 -2.17,6.863"
           style="fill:#808080;fill-opacity:1;fill-rule:nonzero;stroke:none"
           id="path84"
           inkscape:connector-curvature="0" />
        <path
           d="m 2293.8,380.398 c 0,-6.449 1.48,-11.398 4.42,-14.859 2.95,-3.469 6.82,-5.199 11.61,-5.199 4.07,0 7.59,1.769 10.53,5.308 2.95,3.551 4.43,8.622 4.43,15.231 0,4.273 -0.61,7.961 -1.84,11.043 -1.23,3.09 -2.97,5.476 -5.22,7.148 -2.26,1.68 -4.9,2.532 -7.9,2.532 -3.09,0 -5.84,-0.852 -8.25,-2.532 -2.42,-1.672 -4.32,-4.109 -5.7,-7.3 -1.39,-3.18 -2.08,-6.969 -2.08,-11.372 z m -0.77,48.153 v -24.75 c 3.04,3.16 6.15,5.59 9.32,7.269 3.16,1.68 7.09,2.52 11.75,2.52 5.39,0 10.1,-1.281 14.16,-3.82 4.05,-2.571 7.2,-6.258 9.44,-11.11 2.23,-4.84 3.36,-10.601 3.36,-17.25 0,-4.91 -0.63,-9.398 -1.87,-13.5 -1.25,-4.101 -3.06,-7.648 -5.44,-10.648 -2.37,-3.012 -5.25,-5.34 -8.63,-6.981 -3.39,-1.652 -7.12,-2.461 -11.19,-2.461 -2.5,0 -4.85,0.289 -7.04,0.891 -2.2,0.59 -4.07,1.371 -5.61,2.34 -1.54,0.969 -2.86,1.969 -3.94,3 -1.09,1.019 -2.53,2.57 -4.31,4.629 v -1.598 c 0,-3.051 -0.73,-5.363 -2.2,-6.93 -1.46,-1.562 -3.32,-2.332 -5.58,-2.332 -2.29,0 -4.12,0.77 -5.49,2.332 -1.36,1.567 -2.04,3.879 -2.04,6.93 v 70.758 c 0,3.281 0.66,5.769 1.98,7.449 1.33,1.68 3.18,2.52 5.55,2.52 2.5,0 4.42,-0.797 5.76,-2.399 1.34,-1.609 2.02,-3.89 2.02,-6.859"
           style="fill:#808080;fill-opacity:1;fill-rule:nonzero;stroke:none"
           id="path86"
           inkscape:connector-curvature="0" />
        <path
           d="m 2362.07,345.801 1.48,3.621 -19.95,50.219 c -1.22,2.879 -1.84,4.988 -1.84,6.289 0,1.39 0.36,2.672 1.07,3.859 0.71,1.191 1.69,2.141 2.94,2.852 1.24,0.718 2.54,1.07 3.89,1.07 2.33,0 4.09,-0.742 5.28,-2.231 1.19,-1.48 2.24,-3.601 3.15,-6.378 l 13.71,-39.891 13,37.109 c 1.03,2.989 1.96,5.352 2.79,7.059 0.83,1.703 1.71,2.851 2.64,3.43 0.93,0.601 2.25,0.902 3.95,0.902 1.23,0 2.4,-0.32 3.53,-0.981 1.13,-0.66 2,-1.531 2.61,-2.64 0.61,-1.11 0.93,-2.281 0.93,-3.5 -0.17,-0.75 -0.42,-1.82 -0.78,-3.211 -0.36,-1.379 -0.79,-2.797 -1.3,-4.207 l -21.13,-55.332 c -1.83,-4.871 -3.61,-8.68 -5.35,-11.449 -1.74,-2.77 -4.04,-4.911 -6.92,-6.391 -2.87,-1.488 -6.73,-2.219 -11.6,-2.219 -4.75,0 -8.31,0.508 -10.68,1.528 -2.38,1.043 -3.56,2.921 -3.56,5.652 0,1.848 0.55,3.301 1.69,4.301 1.12,1.008 2.8,1.519 5.01,1.519 0.87,0 1.72,-0.121 2.55,-0.359 1.03,-0.242 1.92,-0.363 2.67,-0.363 1.86,0 3.33,0.281 4.4,0.839 1.06,0.551 2.02,1.512 2.88,2.883 0.85,1.348 1.83,3.367 2.94,6.02"
           style="fill:#808080;fill-opacity:1;fill-rule:nonzero;stroke:none"
           id="path88"
           inkscape:connector-curvature="0" />
        <path
           d="m 2596.83,412.309 h 3.87 v 4.863 c 0,5.09 0.62,9.109 1.91,12.109 1.28,2.989 3.48,5.16 6.55,6.528 3.06,1.363 7.27,2.043 12.6,2.043 9.5,0 14.2,-2.293 14.2,-6.961 0,-1.493 -0.49,-2.782 -1.5,-3.852 -0.96,-1.059 -2.14,-1.598 -3.48,-1.598 -0.63,0 -1.74,0.118 -3.3,0.368 -1.48,0.211 -2.83,0.351 -3.89,0.351 -2.93,0 -4.79,-0.879 -5.66,-2.59 -0.79,-1.718 -1.22,-4.179 -1.22,-7.41 v -3.851 h 3.95 c 6.2,0 9.26,-1.86 9.26,-5.598 0,-2.621 -0.79,-4.32 -2.45,-5.031 -1.64,-0.711 -3.9,-1.071 -6.81,-1.071 h -3.95 v -42.937 c 0,-3.192 -0.75,-5.633 -2.31,-7.301 -1.51,-1.699 -3.46,-2.539 -5.89,-2.539 -2.29,0 -4.19,0.84 -5.74,2.539 -1.52,1.668 -2.27,4.109 -2.27,7.301 v 42.937 h -4.46 c -2.43,0 -4.27,0.532 -5.59,1.641 -1.31,1.07 -1.96,2.492 -1.96,4.23 0,3.899 2.71,5.829 8.14,5.829"
           style="fill:#808080;fill-opacity:1;fill-rule:nonzero;stroke:none"
           id="path90"
           inkscape:connector-curvature="0" />
        <path
           d="m 2649.89,371.219 v -13.547 c 0,-3.274 -0.83,-5.75 -2.34,-7.371 -1.54,-1.672 -3.49,-2.469 -5.86,-2.469 -2.38,0 -4.29,0.816 -5.79,2.5 -1.47,1.648 -2.25,4.098 -2.25,7.34 v 45.137 c 0,7.293 2.62,10.929 7.88,10.929 2.71,0 4.64,-0.84 5.83,-2.547 1.19,-1.711 1.85,-4.211 1.99,-7.55 1.92,3.339 3.9,5.839 5.92,7.55 2.08,1.707 4.77,2.547 8.19,2.547 3.43,0 6.7,-0.84 9.91,-2.547 3.22,-1.711 4.82,-3.98 4.82,-6.781 0,-1.969 -0.69,-3.629 -2.04,-4.879 -1.37,-1.312 -2.84,-1.949 -4.41,-1.949 -0.63,0 -2.07,0.387 -4.33,1.117 -2.28,0.711 -4.3,1.082 -6.02,1.082 -2.37,0 -4.33,-0.64 -5.82,-1.859 -1.52,-1.281 -2.69,-3.113 -3.53,-5.543 -0.81,-2.469 -1.37,-5.41 -1.7,-8.777 -0.31,-3.391 -0.45,-7.52 -0.45,-12.383"
           style="fill:#808080;fill-opacity:1;fill-rule:nonzero;stroke:none"
           id="path92"
           inkscape:connector-curvature="0" />
        <path
           d="m 2692.68,386.012 h 29.39 c -0.39,5.527 -1.87,9.687 -4.47,12.418 -2.61,2.761 -5.99,4.121 -10.25,4.121 -4.03,0 -7.35,-1.371 -9.95,-4.18 -2.59,-2.789 -4.17,-6.902 -4.72,-12.359 m 31.72,-9.211 h -31.72 c 0.06,-3.68 0.78,-6.942 2.22,-9.742 1.47,-2.789 3.37,-4.918 5.78,-6.36 2.4,-1.418 5.02,-2.117 7.93,-2.117 1.94,0 3.7,0.207 5.31,0.688 1.58,0.441 3.15,1.16 4.65,2.132 1.52,0.957 2.88,1.989 4.15,3.129 1.27,1.09 2.92,2.598 4.94,4.489 0.84,0.71 2.03,1.089 3.55,1.089 1.68,0 3.01,-0.468 4.06,-1.39 1.04,-0.918 1.52,-2.188 1.52,-3.86 0,-1.468 -0.55,-3.168 -1.67,-5.117 -1.17,-1.98 -2.89,-3.851 -5.22,-5.66 -2.34,-1.781 -5.25,-3.301 -8.74,-4.461 -3.49,-1.191 -7.54,-1.789 -12.07,-1.789 -10.44,0 -18.52,2.949 -24.29,8.887 -5.78,5.953 -8.7,14.011 -8.7,24.172 0,4.789 0.73,9.238 2.17,13.339 1.41,4.122 3.49,7.602 6.25,10.551 2.72,2.938 6.06,5.18 10.07,6.739 3.99,1.562 8.42,2.339 13.3,2.339 6.32,0 11.76,-1.339 16.29,-4.039 4.53,-2.64 7.96,-6.101 10.18,-10.34 2.26,-4.25 3.39,-8.55 3.39,-12.96 0,-4.051 -1.18,-6.688 -3.51,-7.911 -2.33,-1.211 -5.61,-1.808 -9.84,-1.808"
           style="fill:#808080;fill-opacity:1;fill-rule:nonzero;stroke:none"
           id="path94"
           inkscape:connector-curvature="0" />
        <path
           d="m 2760.11,386.012 h 29.38 c -0.39,5.527 -1.9,9.687 -4.47,12.418 -2.63,2.761 -6.01,4.121 -10.26,4.121 -4.04,0 -7.35,-1.371 -9.96,-4.18 -2.58,-2.789 -4.17,-6.902 -4.69,-12.359 m 31.71,-9.211 h -31.71 c 0.04,-3.68 0.78,-6.942 2.21,-9.742 1.45,-2.789 3.37,-4.918 5.76,-6.36 2.39,-1.418 5.04,-2.117 7.95,-2.117 1.92,0 3.7,0.207 5.28,0.688 1.61,0.441 3.16,1.16 4.68,2.132 1.52,0.957 2.88,1.989 4.15,3.129 1.25,1.09 2.9,2.598 4.93,4.489 0.84,0.71 2.04,1.089 3.55,1.089 1.68,0 3.02,-0.468 4.07,-1.39 1.03,-0.918 1.5,-2.188 1.5,-3.86 0,-1.468 -0.54,-3.168 -1.71,-5.117 -1.1,-1.98 -2.84,-3.851 -5.19,-5.66 -2.31,-1.781 -5.25,-3.301 -8.72,-4.461 -3.48,-1.191 -7.55,-1.789 -12.09,-1.789 -10.42,0 -18.5,2.949 -24.29,8.887 -5.78,5.953 -8.68,14.011 -8.68,24.172 0,4.789 0.72,9.238 2.17,13.339 1.42,4.122 3.49,7.602 6.23,10.551 2.72,2.938 6.07,5.18 10.09,6.739 3.98,1.562 8.44,2.339 13.3,2.339 6.31,0 11.74,-1.339 16.33,-4.039 4.5,-2.64 7.91,-6.101 10.14,-10.34 2.24,-4.25 3.4,-8.55 3.4,-12.96 0,-4.051 -1.19,-6.688 -3.51,-7.911 -2.34,-1.211 -5.62,-1.808 -9.84,-1.808"
           style="fill:#808080;fill-opacity:1;fill-rule:nonzero;stroke:none"
           id="path96"
           inkscape:connector-curvature="0" />
        <path
           d="m 2859.09,381.082 c 0,4.27 -0.67,7.949 -1.97,11.008 -1.3,3.082 -3.11,5.422 -5.41,7.051 -2.29,1.64 -4.89,2.48 -7.7,2.48 -4.46,0 -8.24,-1.781 -11.31,-5.269 -3.07,-3.543 -4.62,-8.731 -4.62,-15.59 0,-6.41 1.53,-11.453 4.6,-15.043 3.05,-3.578 6.79,-5.36 11.33,-5.36 2.68,0 5.19,0.789 7.48,2.332 2.32,1.579 4.16,3.911 5.52,7.039 1.38,3.129 2.08,6.918 2.08,11.352 m -31.77,23.539 v -1.941 c 3.03,3.761 6.21,6.511 9.52,8.281 3.24,1.769 6.99,2.668 11.14,2.668 4.97,0 9.6,-1.297 13.8,-3.859 4.19,-2.59 7.48,-6.348 9.93,-11.29 2.43,-4.968 3.66,-10.808 3.66,-17.589 0,-4.969 -0.7,-9.571 -2.1,-13.762 -1.4,-4.168 -3.36,-7.66 -5.81,-10.488 -2.46,-2.821 -5.34,-5.012 -8.68,-6.539 -3.39,-1.512 -6.95,-2.27 -10.8,-2.27 -4.61,0 -8.52,0.93 -11.66,2.789 -3.14,1.828 -6.14,4.59 -9,8.168 v -24.328 c 0,-7.102 -2.6,-10.691 -7.78,-10.691 -3.06,0 -5.05,0.91 -6.07,2.75 -0.95,1.859 -1.46,4.519 -1.46,8.062 v 69.957 c 0,3.102 0.66,5.371 2,6.922 1.34,1.5 3.2,2.277 5.53,2.277 2.31,0 4.16,-0.777 5.6,-2.336 1.47,-1.582 2.18,-3.812 2.18,-6.781"
           style="fill:#808080;fill-opacity:1;fill-rule:nonzero;stroke:none"
           id="path98"
           inkscape:connector-curvature="0" />
        <path
           d="M 2899.72,404.539 V 357.66 c 0,-3.23 -0.78,-5.68 -2.32,-7.328 -1.56,-1.684 -3.5,-2.5 -5.88,-2.5 -2.38,0 -4.28,0.84 -5.8,2.539 -1.46,1.731 -2.22,4.149 -2.22,7.289 v 46.422 c 0,3.188 0.76,5.59 2.22,7.207 1.52,1.66 3.42,2.449 5.8,2.449 2.38,0 4.32,-0.789 5.88,-2.449 1.54,-1.617 2.32,-3.879 2.32,-6.75 m -8.03,16.75 c -2.27,0 -4.18,0.711 -5.77,2.09 -1.62,1.391 -2.42,3.332 -2.42,5.851 0,2.301 0.82,4.192 2.48,5.692 1.63,1.469 3.54,2.219 5.71,2.219 2.12,0 3.97,-0.661 5.58,-1.989 1.63,-1.371 2.45,-3.343 2.45,-5.922 0,-2.488 -0.8,-4.441 -2.37,-5.851 -1.58,-1.379 -3.46,-2.09 -5.66,-2.09"
           style="fill:#808080;fill-opacity:1;fill-rule:nonzero;stroke:none"
           id="path100"
           inkscape:connector-curvature="0" />
        <path
           d="m 2951.96,355.23 -14.27,23.532 -8.81,-8.301 v -12.91 c 0,-3.121 -0.83,-5.512 -2.47,-7.18 -1.61,-1.699 -3.54,-2.539 -5.67,-2.539 -2.49,0 -4.47,0.816 -5.88,2.5 -1.41,1.648 -2.14,4.098 -2.14,7.34 v 69.137 c 0,3.589 0.71,6.32 2.06,8.211 1.4,1.91 3.41,2.832 5.96,2.832 2.5,0 4.46,-0.852 5.93,-2.571 1.47,-1.691 2.21,-4.211 2.21,-7.511 v -39.329 l 18.23,19.141 c 2.26,2.348 3.95,4 5.17,4.859 1.18,0.868 2.62,1.297 4.31,1.297 2.04,0 3.71,-0.648 5.09,-1.929 1.32,-1.289 2.01,-2.907 2.01,-4.829 0,-2.371 -2.21,-5.558 -6.6,-9.511 l -8.6,-7.887 16.62,-26.141 c 1.21,-1.961 2.12,-3.402 2.65,-4.421 0.52,-0.989 0.81,-1.989 0.81,-2.879 0,-2.59 -0.72,-4.59 -2.13,-6.102 -1.4,-1.48 -3.27,-2.207 -5.54,-2.207 -1.97,0 -3.52,0.508 -4.58,1.598 -1.06,1.082 -2.55,3.019 -4.36,5.8"
           style="fill:#808080;fill-opacity:1;fill-rule:nonzero;stroke:none"
           id="path102"
           inkscape:connector-curvature="0" />
        <path
           d="m 2987.18,347.832 c -2.44,0 -4.54,0.789 -6.33,2.379 -1.78,1.559 -2.68,3.777 -2.68,6.648 0,2.411 0.86,4.493 2.56,6.223 1.72,1.75 3.8,2.617 6.3,2.617 2.49,0 4.6,-0.867 6.39,-2.578 1.75,-1.719 2.64,-3.82 2.64,-6.262 0,-2.82 -0.89,-5.05 -2.64,-6.621 -1.79,-1.617 -3.87,-2.406 -6.24,-2.406"
           style="fill:#808080;fill-opacity:1;fill-rule:nonzero;stroke:none"
           id="path104"
           inkscape:connector-curvature="0" />
        <path
           d="m 3067.8,367.891 c 0,-2 -0.6,-4.172 -1.82,-6.461 -1.2,-2.321 -3.05,-4.489 -5.53,-6.559 -2.47,-2.082 -5.58,-3.769 -9.35,-5.031 -3.75,-1.258 -8,-1.91 -12.69,-1.91 -10.04,0 -17.86,2.929 -23.48,8.761 -5.6,5.84 -8.42,13.68 -8.42,23.489 0,6.679 1.28,12.539 3.87,17.66 2.55,5.09 6.28,9.039 11.14,11.832 4.87,2.797 10.72,4.187 17.46,4.187 4.21,0 8.05,-0.609 11.58,-1.847 3.5,-1.223 6.45,-2.821 8.9,-4.742 2.42,-1.961 4.29,-4.02 5.56,-6.2 1.3,-2.199 1.93,-4.25 1.93,-6.172 0,-1.918 -0.71,-3.566 -2.15,-4.918 -1.47,-1.339 -3.22,-2.031 -5.24,-2.031 -1.37,0 -2.48,0.36 -3.38,1.039 -0.9,0.703 -1.91,1.813 -2.99,3.391 -1.99,2.992 -4.04,5.262 -6.23,6.742 -2.14,1.52 -4.87,2.27 -8.21,2.27 -4.76,0 -8.65,-1.86 -11.58,-5.61 -2.92,-3.722 -4.4,-8.883 -4.4,-15.34 0,-3.05 0.39,-5.871 1.15,-8.421 0.73,-2.551 1.81,-4.731 3.25,-6.528 1.44,-1.793 3.15,-3.152 5.16,-4.09 2.03,-0.953 4.26,-1.414 6.65,-1.414 3.26,0 6.04,0.754 8.35,2.262 2.35,1.5 4.39,3.789 6.17,6.891 0.99,1.82 2.04,3.23 3.18,4.269 1.14,1.02 2.56,1.559 4.22,1.559 1.98,0 3.63,-0.77 4.92,-2.27 1.32,-1.5 1.98,-3.117 1.98,-4.808"
           style="fill:#808080;fill-opacity:1;fill-rule:nonzero;stroke:none"
           id="path106"
           inkscape:connector-curvature="0" />
        <path
           d="m 3121.47,380.77 c 0,6.621 -1.47,11.761 -4.37,15.429 -2.89,3.723 -6.81,5.551 -11.71,5.551 -3.17,0 -5.97,-0.828 -8.39,-2.461 -2.42,-1.637 -4.26,-4.059 -5.56,-7.277 -1.31,-3.211 -1.97,-6.961 -1.97,-11.242 0,-4.239 0.64,-7.918 1.93,-11.079 1.3,-3.203 3.14,-5.609 5.54,-7.293 2.41,-1.668 5.22,-2.527 8.45,-2.527 4.9,0 8.82,1.848 11.71,5.57 2.9,3.7 4.37,8.821 4.37,15.329 m 16.27,0 c 0,-4.809 -0.76,-9.282 -2.22,-13.372 -1.55,-4.066 -3.7,-7.578 -6.56,-10.488 -2.85,-2.93 -6.26,-5.168 -10.2,-6.75 -4,-1.539 -8.44,-2.34 -13.37,-2.34 -4.91,0 -9.33,0.801 -13.25,2.391 -3.9,1.559 -7.32,3.84 -10.17,6.758 -2.88,2.98 -5.05,6.472 -6.57,10.48 -1.44,4.02 -2.19,8.473 -2.19,13.321 0,4.91 0.77,9.41 2.24,13.492 1.51,4.09 3.68,7.57 6.49,10.449 2.82,2.891 6.21,5.109 10.2,6.691 4.02,1.559 8.43,2.336 13.25,2.336 4.9,0 9.36,-0.777 13.37,-2.386 3.98,-1.563 7.39,-3.832 10.27,-6.743 2.86,-2.968 5.02,-6.429 6.5,-10.449 1.46,-4.07 2.21,-8.5 2.21,-13.39"
           style="fill:#808080;fill-opacity:1;fill-rule:nonzero;stroke:none"
           id="path108"
           inkscape:connector-curvature="0" />
        <path
           d="m 3199.56,379.582 v -21.543 c 0,-3.418 -0.75,-5.937 -2.3,-7.668 -1.57,-1.699 -3.58,-2.551 -6.11,-2.551 -2.46,0 -4.47,0.852 -5.95,2.551 -1.54,1.731 -2.32,4.25 -2.32,7.668 v 25.82 c 0,4.082 -0.13,7.262 -0.4,9.532 -0.29,2.211 -1.05,4.089 -2.27,5.511 -1.22,1.469 -3.18,2.2 -5.81,2.2 -5.32,0 -8.8,-1.813 -10.48,-5.5 -1.67,-3.61 -2.54,-8.84 -2.54,-15.672 v -21.891 c 0,-3.359 -0.76,-5.91 -2.26,-7.648 -1.55,-1.711 -3.55,-2.571 -6.03,-2.571 -2.47,0 -4.48,0.86 -6.04,2.571 -1.58,1.738 -2.35,4.289 -2.35,7.648 v 46.371 c 0,3.059 0.69,5.379 2.09,6.942 1.44,1.609 3.29,2.386 5.56,2.386 2.23,0 4.07,-0.769 5.57,-2.218 1.48,-1.489 2.22,-3.54 2.22,-6.149 v -1.531 c 2.83,3.34 5.84,5.82 9.03,7.371 3.23,1.629 6.76,2.418 10.7,2.418 4.07,0 7.57,-0.82 10.49,-2.438 2.93,-1.632 5.33,-4.101 7.25,-7.351 2.75,3.301 5.68,5.762 8.81,7.371 3.13,1.609 6.58,2.418 10.39,2.418 4.41,0 8.26,-0.899 11.46,-2.617 3.19,-1.742 5.58,-4.25 7.18,-7.473 1.37,-2.957 2.06,-7.57 2.06,-13.859 v -31.641 c 0,-3.418 -0.76,-5.937 -2.3,-7.668 -1.53,-1.699 -3.59,-2.551 -6.12,-2.551 -2.46,0 -4.46,0.86 -6.03,2.571 -1.56,1.738 -2.35,4.289 -2.35,7.648 v 27.262 c 0,3.488 -0.15,6.269 -0.43,8.359 -0.3,2.11 -1.11,3.879 -2.39,5.289 -1.33,1.422 -3.32,2.153 -5.96,2.153 -2.14,0 -4.16,-0.661 -6.09,-1.922 -1.91,-1.239 -3.41,-2.981 -4.5,-5.078 -1.16,-2.743 -1.78,-7.582 -1.78,-14.52"
           style="fill:#808080;fill-opacity:1;fill-rule:nonzero;stroke:none"
           id="path110"
           inkscape:connector-curvature="0" />
        <path
           d="m 2445.16,384.691 c -0.01,0.039 -0.01,0.071 -0.01,0.11 0,-0.039 0,-0.071 0.01,-0.11"
           style="fill:#808080;fill-opacity:1;fill-rule:nonzero;stroke:none"
           id="path112"
           inkscape:connector-curvature="0" />
        <path
           d="m 2445.98,379.512 c 0.01,0 0.01,0 0.01,0 -0.31,1.48 -0.55,2.937 -0.74,4.39 0.19,-1.461 0.43,-2.933 0.73,-4.39"
           style="fill:#808080;fill-opacity:1;fill-rule:nonzero;stroke:none"
           id="path114"
           inkscape:connector-curvature="0" />
        <path
           d="m 2451.34,364.469 c -0.04,0.062 -0.07,0.14 -0.11,0.211 0.04,-0.071 0.07,-0.149 0.11,-0.211"
           style="fill:#808080;fill-opacity:1;fill-rule:nonzero;stroke:none"
           id="path116"
           inkscape:connector-curvature="0" />
        <path
           d="m 2450.83,365.469 c -0.14,0.281 -0.28,0.57 -0.41,0.84 0.13,-0.289 0.27,-0.559 0.41,-0.84"
           style="fill:#808080;fill-opacity:1;fill-rule:nonzero;stroke:none"
           id="path118"
           inkscape:connector-curvature="0" />
        <path
           d="m 2447.48,373.719 c 0.8,-2.5 1.75,-4.93 2.86,-7.239 -1.13,2.36 -2.06,4.79 -2.83,7.239 -0.01,0 -0.02,0 -0.03,0"
           style="fill:#808080;fill-opacity:1;fill-rule:nonzero;stroke:none"
           id="path120"
           inkscape:connector-curvature="0" />
        <path
           d="m 2507.89,446.801 c 3.13,0 5.45,-0.25 8.1,-0.699 l 0.75,4.769 c 0,0 -7.32,2.25 -16.94,1.461 l -0.76,2.598 c 2.99,0.629 5.24,3.289 5.24,6.461 0,3.64 -2.97,6.589 -6.61,6.589 -3.64,0 -6.6,-2.949 -6.6,-6.589 0,-3.172 2.24,-5.832 5.23,-6.461 l 0.83,-2.899 c -10.21,-1.402 -18.34,-5.383 -18.34,-5.383 l 1.44,-4.406 c 6.18,2.059 11.54,3.309 16.4,3.828 4.76,0.512 8.34,0.731 11.26,0.731"
           style="fill:#808080;fill-opacity:1;fill-rule:nonzero;stroke:none"
           id="path122"
           inkscape:connector-curvature="0" />
        <path
           d="m 2451.22,422.68 0.04,0.05 c 0.24,0.309 0.47,0.61 0.7,0.891 l -1.95,1.41 -3.05,2.231 c -0.17,-0.242 -4.97,-4.653 -8.76,-12.801 -0.16,0.258 -0.35,0.508 -0.56,0.75 -1.14,1.238 -2.72,1.871 -4.74,1.828 -0.03,0 -0.06,0 -0.09,0 -1.25,0 -2.11,0.422 -2.67,0.922 0.56,0.711 0.89,1.598 0.89,2.59 0,2.301 -1.87,4.179 -4.18,4.179 -2.3,0 -4.18,-1.878 -4.18,-4.179 0,-2.321 1.88,-4.18 4.18,-4.18 0.36,0 0.71,0.059 1.04,0.117 1.03,-1.136 2.66,-2.129 5.05,-2.078 1.23,0.012 2.13,-0.308 2.74,-0.969 0.69,-0.761 0.92,-1.851 0.99,-2.679 0,-0.012 0,-0.032 -0.01,-0.032 -2.73,-7.429 -1.95,-16.679 -1.95,-16.679 l 6.61,-0.27 c 0.13,3.367 0.62,9.27 2.32,13.938 3.29,9.062 7.41,14.722 7.58,14.961"
           style="fill:#808080;fill-opacity:1;fill-rule:nonzero;stroke:none"
           id="path124"
           inkscape:connector-curvature="0" />
        <path
           d="m 2565.39,441.27 c -2.3,0 -4.18,-1.86 -4.18,-4.18 0,-0.36 0.05,-0.699 0.14,-1.031 -1.14,-1.039 -2.14,-2.668 -2.1,-5.059 0.02,-1.238 -0.3,-2.129 -0.97,-2.73 -0.53,-0.469 -1.19,-0.719 -1.85,-0.879 -4.91,6.89 -10.97,11.089 -10.97,11.089 l -4.74,-5.082 c 3.58,-3.257 7.24,-7.339 10.8,-12.437 2.46,-3.52 4.99,-8.063 7.1,-12.59 l 6.4,3.039 c 0,0 -2.92,7.219 -7.04,13.699 0.72,0.25 1.44,0.641 2.07,1.2 1.26,1.132 1.87,2.73 1.83,4.73 -0.01,1.301 0.42,2.18 0.93,2.762 0.72,-0.539 1.61,-0.891 2.58,-0.891 2.32,0 4.19,1.879 4.19,4.18 0,2.32 -1.87,4.18 -4.19,4.18"
           style="fill:#808080;fill-opacity:1;fill-rule:nonzero;stroke:none"
           id="path126"
           inkscape:connector-curvature="0" />
        <path
           d="m 2548.78,383.762 c -8.81,-4.293 -23.3,-9.961 -42.38,-12.621 -7.49,-1.039 -14.75,-1.422 -21.43,-1.422 -8.69,0 -16.37,0.64 -22.26,1.39 -6.73,0.852 -11.99,1.883 -15.2,2.61 0.77,-2.449 1.7,-4.879 2.83,-7.239 0.02,-0.058 0.05,-0.128 0.08,-0.171 0.13,-0.27 0.27,-0.559 0.41,-0.84 0.13,-0.27 0.27,-0.539 0.4,-0.789 0.04,-0.071 0.07,-0.149 0.11,-0.211 1.89,-3.559 4.17,-6.84 6.75,-9.68 9,-9.84 18.17,-11.398 18.26,-11.41 l 0.14,-0.02 0.14,-0.05 c 0.08,-0.028 8.21,-2.649 20.57,-2.649 12.16,0 24.09,2.449 35.46,7.289 8.42,4.313 16.39,10.852 20.34,16.692 3.05,4.519 5.25,9.328 6.56,14.339 0.7,2.661 1.24,6.918 0.92,11.399 -2.48,-1.66 -6.4,-4.039 -11.7,-6.617"
           style="fill:#808080;fill-opacity:1;fill-rule:nonzero;stroke:none"
           id="path128"
           inkscape:connector-curvature="0" />
        <path
           d="m 2479.22,425.199 c 9.73,0 17.61,-7.89 17.61,-17.609 0,-9.731 -7.88,-17.59 -17.61,-17.59 -9.71,0 -17.6,7.859 -17.6,17.59 0,9.719 7.89,17.609 17.6,17.609 z m 51.51,-0.437 c 6.01,0 10.9,-4.883 10.9,-10.891 0,-6.012 -4.89,-10.902 -10.9,-10.902 -6.01,0 -10.89,4.89 -10.89,10.902 0,6.008 4.88,10.891 10.89,10.891 z m -76.68,-4.16 c -0.26,-0.383 -4.08,-5.782 -7.1,-14.09 -2.26,-6.211 -2.16,-15.274 -2.16,-15.371 v -0.02 c 0,-2.121 0.12,-4.23 0.36,-6.32 0,-0.039 0,-0.071 0.01,-0.11 0.02,-0.261 0.07,-0.519 0.09,-0.789 0.19,-1.453 0.43,-2.91 0.74,-4.39 4.38,-1.114 30.49,-7.203 59.68,-3.133 18.29,2.543 32.19,7.953 40.62,12.043 7.01,3.398 11.51,6.469 13.25,7.738 -1.73,6.422 -6.51,16.5 -10.89,22.789 -12.53,17.91 -26.05,22.5 -32.99,23.641 -2.65,0.441 -4.76,0.691 -7.77,0.691 -2.79,0 -6.26,-0.23 -10.89,-0.722 -4.65,-0.477 -9.83,-1.7 -15.83,-3.719 -8.42,-2.82 -16.04,-7.25 -22.04,-12.801 l -0.21,-0.187 c -0.88,-0.821 -2.74,-2.543 -4.87,-5.25"
           style="fill:#808080;fill-opacity:1;fill-rule:nonzero;stroke:none"
           id="path130"
           inkscape:connector-curvature="0" />
      </g>
    </g>
  </g>
</svg>
